<svg xmlns="http://www.w3.org/2000/svg" width="1024" height="1024" viewBox="0 0 1024 1024"><path d="M537.738 104.221c34.886-3.36 76.2 14.027 93.596 45.411 23.358-8.44 41.33 10.073 49.964 30.031 11.908 27.525 12.068 62.195 1.16 90.083 28.326 17.288 17.894 51.388-12.44 55.116-10.082 28.158-19.692 51.096-42.508 72.156 15.874 1.774 21.302 3.144 30.676 16.532 3.192 2.292 5.68 3.516 9.284 5.076 18.61 8.052 34.59 20.744 48.924 34.932 18.492-37.51 34.168-36.728 74.358-24.898 25.428 7.484 62.236 18.182 86.262 29.59 33.86 16.078 19.258 54.978 13.624 82.71l-29.772 142.77c-3.234 16.138-2.674 30.36-17.434 41.14-22.78 16.64-48.002-4.72-66.062 1.396-19.364 6.56-74.046-11.536-86.886-29.03-19.122 12.784-37.186 5.596-52.642-8.726-10.646 48.466-1.226 121.124 10.602 168.03 2.056 8.156 6.274 17.278 4.854 25.554-11.608 16.748-65.826 41.058-85.978 28.618-6.72-4.146-7.69-13.092-2.38-18.942 13.124-14.462 36.804-19.208 55.412-21.512-39.566-38.038-64.194-100.958-93.192-147.664-4.63-.498-7.664-.318-12.288 0-8.76 9.756-33.818 87.842-35.28 102.306-7.194 12.898-15.86 69.862-16.34 70.218-14.1 10.456-77.556 18.324-92.944 4.506-5.794-5.202-3.582-14.826 2.108-18.772 15.648-10.856 46.3-6.364 64.148-4.856-1.38-10.078-4.718-20.724-7.142-30.688-13.536-55.626-22.958-111.884-29.728-168.714-10.272-5.384-7.03-11.15-7.178-21.558-.68-48.224 7.842-94.04 18.816-140.748-85.826 24.134-160.368-6.386-209.056-81.004-18.308-2.316-62.002-3.008-72.376-15.464-12.58-15.216-7.823-93.372 36.136-88.46 4.178-17.854 8.384-26.756 26.69-22.916 8.14 1.708 16.33-.824 24.854 4.214 3.786 5.3 5.014 14.69 5.548 21.098 42.586 4.872 37.514 28.19 32.22 65.036-.972 6.768-2.054 12.5-4.146 18.84 9.892 12.876 30.29 23.078 45.228 28.87 47.248 18.326 73.906-.412 113.72-17.71 13.67-5.938 27.518-11.252 41.13-17.408-22.538-21.72-33.478-44.08-40.074-74.8-3.668-17.078 1.032-11.864-7.472-28.228-7.112-13.684-12.646-33.588-6.272-48.472 5.79-13.52 9.99-4.232 16.236-31.172-23.326-5.918-43.184-32.16-36.422-56.404 1.056-3.783 6.634 5.74 7.842 6.687 17.082 13.519 36.624-5.91 49.146-16.946 30.732-27.082 60.592-52.184 103.474-55.828M411.332 655.752c71.116-8.956 119.718-9.206 192.048 6.672 9.208 1.934 18.854 4.228 27.954 6.734.714-6.614 1.296-13.53 2.196-20.088-58.69-57.158-89.058-144.868-49.142-221.576-39.6 14.152-74.01 15.372-113.26-3.77-40.814 52.228-59.074 164.548-59.796 232.028m68.26-433.136c-13.508 4.844-31.948 7.794-46.434 6.902-1.308 3.29-2.164 6.068-2.748 9.596 28.964.542 59.636 1.156 78.272 26.388 6.354-.092 14.614.36 20.554 0 20.738-26.672 78.832-31.444 104.804-13.354 38.198 26.606-23.446 128.26-82.906 78.236-13.298-11.188-19.614-23.482-23.974-40.016-.188-2.174-.47-3.702 0-5.85h-16.548c-9.06 43.77-35.504 68.744-80.202 49.828 28.304 122.834 176.032 105.812 216.902-.63 2.676-6.97 4.102-15.484 8.028-21.972 6.556-8.928 30.498-1.434 23.204-21.376-8.536-8.254-12.09-1.972-20.358.908-9.762-8.988-1.344-9.66-4.376-15.212-10.278-18.83-28.026-34.624-36.418-55.05-.634-1.542-2.222-5.628-3.084-6.6-45.338 30.448-87.572 32.234-134.716 8.202M742.35 484.48c.746-1.688 1.982-4.982 2.38-6.736 9.384-41.366 51.98-16.602 78.25-5.642 1.4-5.128 2.082-7.278 4.836-11.792-15.732-5.31-64.514-24.934-79.328-18.254-13.442 6.062-12.228 15.794-18.168 26.412 3.74 5.132 8.638 10.994 12.03 16.012M584.388 787.078l12.672-3.128c-15.878-27.834-20.21-61.676-53.47-70.908 9.972 19.6 28.316 57.578 40.798 74.036m126.726-159.724c15.162-7.022 28.518-19.712 33.896-35.844 19.714-59.128-26.302-124.146-76.76-151.594-8.878-4.83-15.732-9.08-26.046-9.638-17.37 15.7-25.678 47.062-26.548 69.588-1.766 45.732 14.374 73.33 39.986 107.596 1.174-7.26 1.778-14.658 2.678-21.97l4.242-32.488c1.064-8.66 1.872-16.998 3.54-25.578-8.524-5.016-26.742-13.874-33.316-19.226-5.526-4.5-3.014-14.802 4.2-15.868 9.8-1.45 44.548 24.17 53.498 31.292 29.244 26.96 40.562 59.51 16.202 96.01 1.452 2.54 2.93 5.222 4.428 7.72M444.342 776.716c-4.062-30.382-8.818-49.344-7.66-82.4.296-8.388 1.774-16.546 1.98-25.158-7.336 2.07-13.618 2.366-20.892 3.826 4.29 33.856 11.64 68.806 15.388 101.59 4.048.634 7.202 1.206 11.184 2.142m6.938 78.696c.824-3.974 1.694-8.764 2.768-12.61 3.598-13.808 8.802-27.806 11.854-41.614-9.656-2.486-19.864-5.018-29.338-8.008 4.69 20.474 7.946 42.32 14.716 62.232m223.758-247.95c4.514.086 15.324 2.782 16.908 0 7.312-13.434 11.764-25.444 7.574-40.87-1.762-6.49-11.292-22.49-17.062-25.362-1.164 4.318-2.232 17.366-2.766 22.536zM430.41 257.312c-42.906 5.696 1.892 81.854 39.26 62.358 12.902-9.062 18.688-19.338 21.782-34.808 5.088-25.446-43.266-29.158-61.042-27.55m-246.448 65.026c-1.59 2.32-2.244 4.212-2.52 7.022 8.304.55 16.927 1.05 25.13 2.396l1.202.036c1.154-1.662-.524-5.034-1.202-6.93-7.697-.368-15.549-2.2-22.61-2.524m433.23 516.184c3.728 4.134 6.846 7.974 10.318 12.3-1.068-4.984-10.04-54.992-10.318-55.266-6.928 2.8-15.914 5.92-22.344 9.078 6.994 9.408 15.362 23.566 22.344 33.888m51.054-638.518c-3.172-20.004-19.676-54.164-45.01-42.499-40.388-47.836-98.27-40.762-147.146-11.105-25.926 15.732-48.996 43.287-79.666 44.936 3.486 5.708 7.386 9.552 13.218 12.938 44.366-9.72 79.896-60.328 131.272-64.998 34.756-3.159 57.094 6.73 82.322 28.297 28.586-2.198 37.526 28.226 45.01 32.431m-82.74 60.308c-76.168 5.942-25.184 66.258 0 64.55 24.644-2.382 42.276-27.632 42.004-51.592-7.252-12.422-29.232-14.348-42.004-12.958M224.752 434.906c6.708 6.982 13.086 14.37 19.822 21.366 49.928 51.864 105.668 51.012 171.552 40.9 3.658-9.752 5.902-19.072 10.134-28.704 3.894-10.112 11.222-27.272 18.082-35.184-20.428 4.282-50.66 23.924-72.884 31.396-41.706 14.022-90.24-.428-120.738-31.094-.928-.906-5.152-5.872-6.026-6.092-6.762 4.47-11.728 6.412-19.942 7.412m-65.53-93.418c-20.39.944-16.69 39.254-17.302 55.732-.574 15.482 67.504 16.3 78.204 16.33 15.11-.264 13.554-15.21 15.222-25.498 5.51-34.02-2.908-38.172-34.73-41.876-12.66-1.51-27.084-5.654-41.394-4.688"/><path d="M490.712 360.234c3.582.896 10.092 11.766 18.284 14.416 23.656 9.512 36.53-10.722 43.208-7.324 2.164 2.71 1.55 4.796-.496 7.246-29.842 27.784-67.988.29-60.996-14.338"/><path fill="#1447e6" d="M742.35 484.48c.746-1.688 1.982-4.982 2.38-6.736 9.384-41.366 51.98-16.602 78.25-5.642 1.4-5.128 2.082-7.278 4.836-11.792 3 .668 4.754 1.504 7.542 2.696-14.854 54.15-27.438 110.286-40.066 165.022l-11.364 49.99c-10.786 46.296-18.668 31.072-60.426 20.292-29-7.486-12.372-28.168-10.348-50.87 71.268-31.592 64.814-106.986 29.196-162.96"/><path fill="#1447e6" d="M409.642 204.274c44.366-9.72 79.896-60.328 131.272-64.998 34.756-3.159 57.094 6.73 82.322 28.297 28.586-2.198 37.526 28.226 45.01 32.431 4.232 17.736 2.212 42.792-2.144 60.308-14.242-27.614-34.966-34.88-42.866-72.028-50.144 34.84-66.242 36.056-121.202 26.13 14.758-8.806 19.646-16.505 28.734-30.784-27.14 14.065-92.71 41.806-121.126 20.644"/><path fill="#1447e6" d="M438.662 669.158c9.596.22 19.658-.628 29.286-1.068 51.682-2.362 102.354 4.818 152.404 17.28-3.946 24.446-8.29 67.228-3.16 91.346-8.486 1.624-12.332 3.71-20.132 7.234-15.878-27.834-20.21-61.676-53.47-70.908-10.016-12.05-30.888-13.028-41.902-3.468-9.926 8.616-24.64 58.66-30.56 74.376-9.44-3.352-17.002-5.006-26.786-7.234-4.062-30.382-8.818-49.344-7.66-82.4.296-8.388 1.774-16.546 1.98-25.158"/><path fill="#1447e6" d="M853.148 469.954c6.144 2.976 12.704 4.018 18.404 7.476 15.244 7.832 5.908 33.432 3.32 45.582L848.994 648.25c-3.73 19.026-4.716 61.96-26.014 64.792-9.338-.994-18.936-2.724-28.23-4.254 4.346-10.744 7.51-27.522 10.154-39.352l12.546-54.694c11.304-48.646 24.196-96.402 35.698-144.788"/><path d="M183.302 352.24c14.009-2.346 27.286 7.048 29.738 21.038 2.452 13.992-6.84 27.34-20.811 29.898-14.123 2.586-27.648-6.828-30.126-20.97s7.039-27.596 21.199-29.966m-1.791 33.17a9.245 9.245 0 0 0 13.859-10.43 9.246 9.246 0 1 0-13.86 10.43"/><path d="M575.744 288.514c11.308-.82 11.926 9.474 8.644 17.744-1.026 1.582-2.422 2.996-3.698 4.4-11.56-1.052-15.556-16.088-4.946-22.144"/><path d="M469.67 284.518c7.77.252 14.448 15.838 1.458 21.74-11.994-.024-12.402-17.352-1.458-21.74"/><path fill="#1447e6" d="M623.236 415.632c2.7-.264 5.382-.088 8.098 0-26.852 18.372-35.766 71.096-34.092 101.172 1.952 35.012 22.362 83.254 48.86 106.09-.938 2.034-2.73 4.91-3.898 6.918l-.404.152c-2.178-.678-8.862-8.59-10.796-10.626-44.802-47.182-60.324-126.192-29.912-184.774 4.704-9.062 12.08-16.254 22.144-18.932"/></svg>