<svg xmlns="http://www.w3.org/2000/svg" width="1024" height="1024" viewBox="0 0 1024 1024"><path fill="#8a38fe" d="M592.369 34.186c12.382-1.86 39.693 2.156 52.224 5.745 33.131 9.492 82.218 33.61 99.862 64.191 13.086 22.681 9.687 50.733 1.409 74.203-2.562 7.263-5.878 15.476-7.969 22.758 8.096 8.816 10.973 7.724 19.188 13.678 18.269 13.669 40.556 27.975 49.544 49.822 7.835 19.046-7.565 30.135-23.935 35.104-21.101 6.406-56.168 3.565-75.68-7.272-.073 8.237-.377 18.211-4.242 25.68 17.334-7.229 41.86-7.736 52.32 11.201 2.942 5.325 4.294 14.947 2.319 20.705-1.462 4.263-3.513 8.359-4.98 12.836 2.915 1.791 7 3.63 10.157 5.39 9.835 5.484 14.886 11.413 21.731 19.89 9.156-13.474 33.525-55.293 53.301-57.824 6.975-.892 21.475 20.127 24.196 25.558 1.002 2 3.241 5.875 4.121 8.173 3.631 8.869 7.257 20.197-6.704 19.65l-.745-.034c-3.859 3.97-6.196 9.15-9.467 12.796-6.693 7.412-14.649 13.713-21.761 20.682-4.986 4.885-6.439 9.66-12.863 13.481-3.868.142-5.978.162-9.807-.187 4.598 12.919 6.315 22.043 6.792 35.824.452 13.073-.85 22.294 3.582 34.804 3.602 10.167 7.721 22.62 13.323 31.744 17.04 27.568 37.824 49.299 36.44 84.177-.859 21.62-12.152 40.326-36.24 39.484-18.035-.63-28.364-15.642-39.269-28.132-8.661 22.722-12.705 29.38-35.304 40.725-21.695 10.891-40.992 14.089-65.25 13.922-21.819-.151-50.333-1.469-66.628-17.7-.045 6.694.213 13.397.207 20.093-.006 7.744-3.811 10.435-9.352 14.79.939 8.639 4.365 19.751 6.689 28.184a1620 1620 0 0 1 6.501 25.092c7.126-1.452 15.891-3.402 23.133-4.014 16.097-1.36 34.454 1.924 49.948 6.526 4.67 1.386 9.936 3.941 14.803 5.619 17.874-8.435 30.759-6.698 50.047-4.147 8.571 1.134 13.257 2.53 19.999 8.119 9.23 1.433 12.437 3.322 15.547 13.141 14.794 46.711 21.03 105.541 4.456 152.344-14.694 41.496-73.976 69.593-114.89 56.334-22.585-7.322-31.114-43.33-19.91-62.713 10.755-19.891 16.072-28.242 37.852-36.581l-.03-8.784c-7.004 1.258-13.486 2.747-20.699 2.872-10.073.173-16.737-10.125-10.282-18.498 5.861-7.602 17.924-4.969 26.698-6.097l.695-.093c-.024-6.535-.363-9.245 1.373-15.4-8.903 1.263-18.142 3.638-27.164 4.932-40.166 5.759-80.255 12.394-117.716-7.172-33.285-17.385-42.381-48.859-52.377-82.672-1.318-5.363-2.024-7.058-4.697-11.892-5.583 11.944-8.448 14.325-15.778 25.166a307 307 0 0 0-15.784 25.773c-8.815 16.227-16.867 34.19-24.439 51.012-11.361 25.243-16.611 44.746-35.511 65.973 7.364 26.324-13.256 41.669-17.545 65.334-8.724 7.488-9.663 13.651-22.033 15.199-4.693.588-9.396.565-14.109.254-10.391-.686-51.765-5.83-58.132-11.284-3.672-3.146-3.27-10.902-3.744-15.399-8.058-2.455-16.664-2.473-25.63-5.411-39.35-12.634-73.12-35.658-102.196-64.649-11.223-11.191-14.679-18.167-6.852-31.959 6.058-10.674 6.679-17.207 17.13-25.872 12.885-10.684 27.376-14.465 43.969-13.531 39.739 2.84 50.879 21.405 73.764 47.846 9.712-7.114 15.091-10.382 26.724-4.915.622-2.882.828-5.763 1.341-8.71 11.156-64.106 35.591-128.205 74.795-180.508 7.48-9.98 15.199-18.838 23.182-27.98-.928-1.147-3.63-4.894-3.971-6.282-2.26-9.631 3.326-20.142 5.04-29.263 2.407-12.81 5.098-21.755 10.524-33.494-5.051-2.284-6.657-3.173-12.657-3.881-5.673-1.068-14.052 5.119-18.946 3.884-5.314-1.342-8.916-18.11-8.282-22.335 2.98-19.877 13.87-39.122 23.123-56.778 3.838-7.325 8.499-12.401 11.959-20.539-18.31 2.718-41.135 9.935-59.551 6.771-13.603-2.337-21.538-38.512-17.936-49.821 7.958-6.919 8.976-7.146.194-14.709-6.039-1.285-15.604-2.561-21.911-3.585-23.037-3.001-41.214-12.227-60.935-23.41-38.364-21.756-56.548-58.064-75.214-95.842-1.888-3.822-6.225-7.02-9.149-10.393-6.264-7.227-10.185-16.75-12.718-25.908-3.764-15.562-4.213-24.644 3.681-38.38-17.147-6.522-18.377-19.342-7.988-33.823 6.748-9.404 21.945-14.199 33.2-15.322-9.159-1.765-23.477-3.449-28.414-12.705-5.045-9.459 8.594-19.688 15.977-23.324 21.955-10.815 50.085-9.98 71.267 2.384 9.266 5.368 13.677 8.342 18.569 18.035 8.464-9.452 16.504-18.346 27.424-25.084 13.016.379 43.411 3.451 54.699 10.337 6.405 3.908 8.994 14.619 10.431 21.785 6.833.531 16.948 2.435 23.863 3.743-18.868-19.654-37.399-47.606-23.977-75.206 5.095-10.476 18.584-21.17 29.665-23.831 28.665-6.883 80.779-7.834 106.728 5.393 29.153-28.889 43.016-40.193 85.657-45.813M338.972 886.505c13.597 20.346 30.616 21.429 52.883 20.616 3.486-2.782 4.022-3.393 6.91-6.696l.365-.422.193-.593c1.658-5.236 2.363-11.042 4.174-16.102 4.007-11.197 10.239-21.681 15.006-32.564 6.789-14.555 12.609-30.118 20.276-44.19 16.279-29.876 37.548-56.258 58.862-82.586-.943-11.876.489-16.025-7.536-24.706-.265-9.79-.735-11.725-3.468-21.057-18.516-.62-40.742-10.129-56.268-20.386-9.245 20.809-21.435 38.576-31.289 58.732-21.397 43.767-40.496 89.366-53.461 136.383-3.007 10.908-6.111 22.31-6.647 33.571m124.115-692.62c-6.566-7.369-7.691-12.281-7.193-21.861 1.606-30.941 24.937-40.794 53.101-38.213 52.245 4.763 102.241 23.398 144.277 54.916 19.401 14.547 39.187 30.583 49.601 53.121 3.699 8.004 2.038 14.195-7.834 10.386l-.399.076c1.45 8.198 2.38 14.956 7.484 21.854 18.406 6.479 64.443 10.927 84.115 4.708 6.053-1.914 4.049-8.463.557-12.577-14.428-17.082-32.765-30.766-50.046-44.798-11.285-9.162-22.178-18.174-33.881-26.801-30.432-22.435-61.006-40.358-94.895-56.969-43.297-21.222-86.753-38.687-135.006-44.778-5.552-.742-41.304-3.099-45.708-2.24-12.923 1.326-33.332 3.184-41.987 13.695a25.75 25.75 0 0 0-5.632 18.562c1.553 15.321 17.677 28.837 29.005 37.646 18.193 14.149 33.001 24.79 54.441 33.273m185.355 635.183c18.82-.011 37.56-4.934 56.209-7.072 3.323-.381 17.212-1.029 18.906-2.347 1.907-4.601-.975-18.073-2.971-22.981-3.275-8.053-9.412-14.812-17.693-17.84-22.976-8.196-52.168-10.924-76.254-10.839-.787 2.188-1.392 4.961-3.674 6.056-1.226.588-2.362.419-3.555-.134-2.236-1.036-3.923-3.893-4.907-6.027-2.244-4.867-3.238-10.87-4.731-16.044-2.899-10.047-6.136-20.042-8.785-30.156-.813-3.104-3.276-17.669-4.716-18.77l-1.768.294c-23.044 2.468-45.786 6.631-69.078 6.875-3.896.041-8.189.16-12.067.472.332 7.39 3.313 18.911 5.286 26.193 6.127 22.088 12.181 45.142 25.217 64.323 14.578 21.448 41.162 23.387 64.658 25.379 13.286 1.127 26.551 2.731 39.923 2.618M540.187 330.937c6.587.019 11.477.053 18.045-1.182 6.424-1.208 12.978-3.214 19.32-4.316-4.655-17.103-2.041-32.465 10.68-45.488 4.525-3.618 11.51-8.265 17.552-7.816 2.471.183 5.787 1.895 8.715 2.554 19.177 4.317 47.898-11.636 32.459-33.366-3.816-5.37-12.022-7.864-18.308-8.269-8.237-1.117-21.596 4.533-27.356 1.192-2.199-4.002 2.396-9.532 4.941-12.462-5.382-2.039-9.279-6.141-12.663-7.487-13.903-5.53-15.771-2.253-26.602-14.412-1.871 13.863-9.838 14.658-22.202 12.887-18.26-2.616-36.634-16.843-47.532-31.252-2.305-3.142-4.601-10.934-6.067-12.28-3.517 5.538-10.386 15.132-12.412 20.604-3.194 8.623-2.564 21.192-4.056 30.714-1.31 8.363-4.466 17.449-5.218 25.409a37.8 37.8 0 0 0 .738 11.978c4.682 20.894 25.055 29.968 43.911 34.724a147 147 0 0 0 13.171 2.675c6.464.994 28.772 1.306 24.765 11.184-3.195 7.879-8.495 16.26-11.881 24.409m-220.904-25.994c3.944 6.379 5.325 21.032 6.832 29.218 6.343 34.461 16.843 65.015 44.213 88.498 6.1 5.234 16.501 11.566 23.435 15.722 15.249 9.912 47.036 16.567 65.592 24.298-2.674-11.599-1.761-41.421-1.375-54.402-33.033-9.191-51.098-21.83-68.029-51.645-15.733-27.706-17.343-50.525-7.455-79.783 4.259-12.602-5.005-36.949-18.411-43.246l-.184.68c-1.368 5.224-1.14 6.976-1.443 12.105-.362 6.153 1.963 17.385-1.378 22.178-2.809 1.111-8.872-6.007-11.624-8.252-9.049-7.381-21.812-14.788-33.901-11.931-3.782.949-6.097 3.531-5.012 8.083.924 5.208 18.903 16.659 16.126 21.6-3.1 5.517-19.101 5.267-22.684 13.198-3.69 8.169 10.765 11.143 15.298 13.679m208.242-219.56c37.213 5.607 92.186 32.317 124.239 52.988 13.729 8.854 27.854 20.105 41.669 29.229 11.395 7.924 18.982 13.429 26.831 25.23l.164-.536c6.723-21.433 22.624-53.87 11.324-75.624-12.877-24.792-48.87-37.022-73.157-47.43-10.384-4.45-20.467-9.856-31.304-13.16-9.609-2.929-20.444-4.251-30.488-3.39-4.777.538-12.323 1.443-16.634 3.085-13.969 5.319-41.92 19.965-52.644 29.607m195.786 758.746c-6.446 23.698 19.858 6.52 27.501 16.608 12.24 16.157-20.836 12.929-25.185 20.262-.216 1.757-.344 1.813.344 3.499 5.861 6.39 27.51-5.419 27.003 8.694-.274 7.634-8.929 10.688-15.141 12.355-26.105 7.006-50.576 3.117-55.261 37.233a40.6 40.6 0 0 0-.132 10.71c.482 3.997.91 6.383 4.193 9.05 6.871 5.582 20.673 6.051 29.057 4.787 22.817-3.44 47.085-14.707 61.21-33.326a57.6 57.6 0 0 0 9.841-19.624c5.935-21.655 1.749-60.297-1.307-82.59-1.149-8.378-6.618-45.119-13.203-50.396-7.486-5.998-30.214-5.434-40.133-5.401.773 6.391 4.174 8.413 6.033 14.023 5.152 15.548 5.917 32.816-.019 48.268-1.091 2.839-3.544 8.52-6.857 9.137-2.293.426-5.939-2.071-7.944-3.289M183.055 244.51c-.307 8.387-1.077 14.904 4.856 21.642 2.538 2.882 4.324 4.738 5.714 8.302 1.392 3.568 6.143 6.195 7.83 9.782 6.377 13.403 12.9 27.176 20.365 40.011 14.114 24.265 36.194 45.84 60.481 59.917 10.286 5.962 25.279 11.264 36.254 16.643 3.767 1.847 11.351 3.003 15.605 3.403l.292-.686c-5.506-10.955-9.818-19.881-14.116-31.562-3.201-8.698-5.642-19.627-8.811-27.852-15.777-11.175-22.7-14.544-34.29-31.042-12.117-17.249-11.995-16.562-8.536-37.006-16.36-6.188-36.557-1.371-48.896-13.314-1.53-1.481-3.189-4.761-4.23-6.748-1.439 1.658-3.798 4.228-5.692 4.047-13.172-1.258-12.528-7.947-3.368-14.918 5.908-4.495 12.528-7.096 16.072-12.938.263-.636-.206-.939-.689-1.622-2.249-1.09-5.236-.991-7.747-.863-11.451 1.276-24.691 4.008-31.094 14.804m-4.77 623.132c6.672 7.484 16.265 10.602 23.905 16.613 15.029 11.823 30.526 22.927 46.477 33.466 19.168 12.666 41.062 20.287 62.697 27.546 9.024 3.022 18.047 6.539 27.116 9.444 10.595 3.221 23.917 6.044 34.864 8.272 4.561-3.945 5.838-5.948 8.639-11.355 3.93-8.319 7.396-15.379 10.275-24.164-29.053 1.279-55.867-2.214-67.143-33.168-1.999-5.488-6.167-16.091-13.664-8.025-5.861 6.304-7.643 17.145-18.8 17.28-8.168.143-19.258-2.797-25.464-8.176-7.172-6.217-3.168-13.251 2.742-17.989-17.602-16.724-38.568-32.241-64.191-30.249-10.287 2.809-22.27 11.013-27.453 20.505m256.822-226.433c6.58 3.253 12.618 3.531 18.765 6.047 9.597 3.93 17.253 10.26 27.709 12.856l.996-.395c1.992-5.474-6.316-19.27-9.644-24.287-3.33-5.019-4.702-16.505 4.897-11.654 7.615 3.848 15.182 15.967 17.154 23.994 2.771 8.945 2.08 33.397 8.961 39.315 3.791 3.26 23.733 1.52 29.537 1.205 14.279-.098 27.036-1.647 41.229-2.978 7.264-.682 14.883-.976 22.226-1.526.127-19.142-1.623-33.883-2.008-52.135-16.997 2.699-27.728 2.887-44.821-.381-8.306-1.589-15.05-2.341-23.346-5.409-18.69-6.911-34.575-18.175-51.36-28.562-7.999-4.95-16.784-8.898-25.361-12.704-7.117 10.851-15.671 43.979-14.934 56.614M282.16 174.342c-8.571-1.703-9.644-.504-17.819-.096-7.226.36-26.496-5.719-10.9-13.588-10.974-7.535-26.701-10.757-39.851-9.364-11.553 1.281-18.425 4.055-28.718 9.218 10.502 1.118 22.177 2.003 32.412 4.469 8.8 2.12 32.362 4.326 31.446 17.157-.407 5.709-7.352 5.811-11.62 5.913.998 20.758-1.991 14.248-7.35 29.606 13.627 18.609-3.112 23.588-.364 31.536 5.117 4.715 33.822 7.393 41.733 8.981 8.378 1.681 18.668 3.18 27.096 5.166a54.8 54.8 0 0 1-1.144-17.636c-14.405 4.517-28.54 8.403-42.893.846a33.03 33.03 0 0 1-16.213-19.83c-2.719-9.1-1.607-19.795 2.929-28.136a32.6 32.6 0 0 1 19.655-15.928c9.571-2.819 15.257-1.378 24.67-.535 15.941 1.428 21.729 2.3 31.349 16.073 4.627 9.125 5.602 15.867 2.408 25.811a168 168 0 0 1-1.73 5.016c16.428.99 20.034 1.236 32.417 12.962-.633-8.91-.805-19.949 11.074-20.724 12.656-.826 17.978 8.521 24.545 17.781 1.728-8.879 4.232-17.635 5.783-26.429-3.946-1.264-11.335-2.995-13.425-6.672-1.97-3.465.264-7.283 4.19-8.03 4.813-.914 8.911-.099 13.647-1.474l.983-.281c-13.722-19.038-50.146-11.613-52.731-23.078 1.694-4.448 9.009-4.384 13.011-4.52-3.01-5.941-5.456-10.132-12.53-12.124-11.125-3.134-24.901-4.243-36.482-5.658-10.384 6.94-16.449 15.694-25.578 23.568m262.407 194.739c14.441-18.487 41.623-26.206 64.237-22.895 9.654.986 14.522 2.152 22.496 7.451-7.086-7.7-10.891-7.575-20.955-8.402-8.826-1.047-11.649-1.6-18.084-8.318-25.07 6.02-54.999 16.203-69.467 38.925 6.751-1.971 15.345-4.28 21.773-6.761M268.62 216.572c1.929-1.837 3.537-3.042 4.646-5.438l-.109-1.183c-1.471-1.073-1.924-1.066-3.978-1.058-2.225 1.692-4.852 3.98-3.925 7.142 1.225.845 1.775.924 3.366.537m3.351 20.66c3.78-.941 7.633-1.487 11.509-1.865 6.857-1.884 10.624-3.244 14.413-9.866 7.199-12.583.035-32.425-16.058-32.009l.332.833c1.98 4.87 5.631 8.834 5.522 14.409-.217 11.179-6.591 22.257-15.718 28.498m444.907 114.084c3.937.968 8.883 2.041 12.647 3.312 3.88-13.974 3.625-19.586-13.152-17.459-10.09 1.411-13.344 4.133-21.177 10.616 7.342.616 14.481 2.017 21.682 3.531m-412.079-33.607c-9.012-17.526-26.42-15.368-9.547-40.699l-11.282-.33c-1.259.072-3.152-.081-3.913.542 2.437 10.612 1.391 6.714.896 16.769 4.022 5.579 17.914 23.775 23.566 25.468l.425-.382zm93.004 21.287c12.742-2.38 16.36.029 27.453-.146 13.505-.213 33.947-.943 46.996-3.274 3.06-.546 16.376-6.603 20.157-8.092-2.041-1.011-4.525-2.127-6.361-3.407-6.521-5.882-7.429-9.398-8.414-17.855-7.21 4.474-14.732 9.434-23.408 6.891-18.765-5.51-26.285-21.556-20.312-39.945 3.112-9.581 8.057-15.415 16.095-21.401 8.644-6.437 10.996-15.223 13.318-25.277.864-3.741 2.282-8.94 1.408-12.678-.762-.977-1.876-1.907-3.011-2.274-16.503-5.342-31.601-13.061-45.993-22.728-2.634-1.769-6.396-5.761-9.191-6.991 7.818 16.138-7.815 54.762-11.489 71.972-.873 4.089 1.184 15.035.486 21.028-.935 8.029-2.391 14.69-4.021 22.586-.743 3.602-.685 9.364-.736 13.054-.182 13.339.227 17.261 7.023 28.537m115.512-5.007c-15.051 3.539-26.041 15.521-33.931 28.212-2.498 4.019-5.82 9.365-6.078 14.099.685 1.503.148.964 1.699 1.635 7.814-12.039 15.608-22.915 26.204-32.688 4.223-3.896 8.61-6.986 13.179-10.426l-.14-.666zm154.347 12.993c6.541-9.845 8.574-11.14 15.948-19.382-7.376.019-16.686-1.924-22.156-7.176-2.147 4.549-5.636 12.349-11.459 14.306-4.331 1.456-16.589-3.459-19.638-1.547-.187 2.981 5.914 6.203 7.649 8.208 2.315 2.673 3.682 8.527 7.3 9.799 1.147-.317.984-.144 1.917-.775 8.014-3.344 11.614-3.479 20.439-3.433m109.116 181.871c-1.734-3.587-6.596-4.051-10.295-4.197-24.793-.975-49.662-2.692-74.449-3.359-5.73-.154-16.506.65-21.674 2.083.852.763 3.097 3.319 4.066 3.345 20.544.548 40.859 3.583 61.282 5.039 12.364.882 28.627-1.606 41.07-2.911M305.123 231.996c4.921-4.386 7.201-7.116 7.65-14.164.402-6.32-2.992-15.819-8.006-19.995 3.772 11.703 4.962 17.746-.278 30.004-.836 1.957-2.397 3.465-2.356 5.228 1.462-.114 1.702-.38 2.99-1.073M840.48 348.944c-4.701 7.521-9.493 5.857-13.831 10.936-9 10.539-16.383 21.609-25.717 32.064 4.79 5.57 9.164 11.962 13.681 17.139 11.082-15.892 22.952-27.226 38.044-39.205-1.555-3.058-10.082-18.675-12.177-20.934m-34.91 66.396c-3.203-3.285-8.184-8.511-12.341-10.604 1.781 4.178 5.81 14.676 8.672 17.613l.763.121.963-1.132zM203.805 193.119c-10.01 2.026-23.439 6.067-29.349 14.896-7.949 11.874 13.36 7.171 18.059 5.721 6.438-1.755 31.072-7.077 31.133-14.405-2.373-6.338-14.089-6.83-19.843-6.212M551.45 513.581a549 549 0 0 1-16.909 7.382c10.647 33.476 27.641 51.58 56.808 69.629 7.754 4.798 14.603 9.275 22.831 13.557a101 101 0 0 0 2.992 1.498c1.983.944 7.898 4.323 9.162 4.418 2.006-1.687 2.182-6 2.613-8.799-8.891-4.822-18.969-9.185-27.468-14.372-19.147-11.683-35.48-29.539-43.814-50.502-1.217-3.062-6.263-22.866-6.215-22.811m257.844 25.715c-.503 8.36-1.299 16.639-2.171 24.967-1.877 17.922-7.464 35.158-12.477 52.418 7.659 8.824 13.92 13.819 25.172 16.979 14.015-5.006 14.801-21.972 12.883-34.431-2.44-15.847-8.823-29.764-16.084-43.84-1.768-3.428-4.744-14.116-7.323-16.093"/><path fill="#cab7f5" fill-opacity=".729" d="M646.84 363.714c24.097-4.629 50.466-1.273 73.672 6.338 21.003 6.888 42.817 17.733 53.098 38.334 4.289 8.595 6.956 17.95 8.83 27.342 2.543 12.743 9.616 81.877 6.21 90.807-.387 1.014-.401.99-1.45 1.439-1.582-.625-1.884-1.543-2.814-3.037l-.376-.615c.069-2.154.603-7.912-.648-9.183-9.42-9.565-39.365-3.963-48.266-8.846-1.521-2.605 1.073-11.387 1.559-15.23 1.903-15.045 2.272-35.215.561-50.03-.83-7.191-10.016-28.694-16.118-32.829-1.869-.236-.952-.343-2.805.584-2.51 3.568.183 24.61.572 29.748 1.694 22.37-2.441 46.069-1.975 68.44-9.615-.121-49.412 1.097-51.805 11.212.327 2.981 2.379 4.818 5.275 5.192.852.763 3.097 3.319 4.066 3.345 20.544.548 40.859 3.583 61.282 5.039 12.364.882 28.627-1.606 41.07-2.911 7.515 21.913 6.4 40.502 1.699 62.992-3.439 15.032-12.151 46.805-26.158 54.011-31.714 16.317-74.678 15.085-109.251 11.345-6.764-.732-13.899-1.331-20.568-2.777 2.451-8.401 7.27-15.817 9.53-22.913 4.869-15.288 9.7-31.825 13.735-47.319a386 386 0 0 0 10.915-57.066c1.173-11.007.991-20.699 1.592-31.575 2.21-39.992 0-80.21-6.112-119.773-.611-3.959-3.321-8.655-5.32-12.064"/><path fill="#8a38fe" d="M772.136 566.144c2.92.822 6.352 2.971 6.887 6.186-3.942 14.383-40.007 15.338-52.028 15.302-14.979-.044-30.153-1.27-44.895-3.965-4.182-1.321-11.352-4.554-10.533-9.882 4.308-5.816 19.922-3.649 26.588-3.424 12.73.431 25.414 1.921 38.168 1.334 12.286-.566 23.817-3.033 35.813-5.551"/><path fill="#cab7f5" fill-opacity=".729" d="M600.031 360.138c14.363-.733 27.404 4.086 37.832 14.031.083 24.139 3.178 49.042 3.647 73.296.131 6.749-.432 15.348-.708 22.236a1138 1138 0 0 1-3.46 55.256c-1.279 16.129-2.174 32.104-4.659 48.068-.789 5.073-.809 9.741-1.832 15.115-.659-.317-1.471-.698-2.089-1.065-31.885-18.92-57.332-37.59-67.824-74.838 3.463-3.626 8.615-6.752 12.846-9.548 7.673-5.07 13.855-8.878 20.534-15.275 2.513-2.424 10.125-10.594 9.638-13.949-1.171-8.567-17.02 2.032-20.754 4.342-24.705 15.281-50.233 21.701-78.579 26.885-10.997 2.011-22.705 5.671-34.384 7.101a219 219 0 0 0 3.686-32.607c.76-20.39.214-40.97-.884-61.318-.24-4.448-.157-13.945 1.37-17.919 3.211-2.449 16.667-.672 20.142-.915 15.9-1.112 28.043-3.194 42.961-9.219 21.213-8.567 39.693-25.755 62.517-29.677"/><path fill="#8a38fe" d="M515.705 250.848c1.584.119 3.483.443 3.87 2.377 1.111 5.555-4.764 11.395-9.493 13.267-4.794 1.898-8.324.974-12.809-.848-2.266-1.313-5.568-4.152-6.631-6.61.92-5.081 13.778-1.353 17.095-2.723 1.718-.709 6.297-4.228 7.968-5.463"/><path fill="#8a38fe" d="M517.365 212.854c12.841.892 7.802 18.218 1.585 24.562-12.419-.475-6.727-18.831-1.585-24.562"/><path fill="#8a38fe" d="M622.171 249.123c5.979.121 14.768 2.036 9.729 10.814-1.996 3.477-6.597 3.799-10.325 4.234-2.135-1.444-1.442-.834-2.497-3.672-2.453-2.224-7.153-.33-8.513-3.573 1.215-4.83 7.309-6.796 11.606-7.803"/><path fill="#8a38fe" d="M483.323 209.365c10.513 3.5 4.943 18.851-1.796 23.621-9.425-3.238-4.918-19.436 1.796-23.621"/><path fill="#8a38fe" d="M486.046 233.036c5.357-.145 6.376-.075 9.467 4.451a765 765 0 0 0-4.006 7.331c-5.86 4.999-10.169-6.502-5.461-11.782"/><path fill="#8a38fe" d="M706.353 132.06c15.462-.832 1.394 21.823-22.334 19.086-5.205-1.454-8.062-4.61-7.057-10.284.772-4.359 8.312-2.188 10.974-2.419 6.312-.546 12.765-3.824 18.417-6.383"/><path fill="#8a38fe" d="M681.918 111.045c11.865-.98 8.333 17.499-12.955 16.83-3.954-.689-8.806-2.79-7.112-7.958 1.591-4.855 10.101-5.134 14.191-6.406 1.994-.619 3.93-1.549 5.876-2.466"/><path fill="#8a38fe" d="M229.159 275.994c7.168.336 16.582 3.844 8.189 11.507-7.621 2.099-14.217-5.452-8.189-11.507"/><path fill="#8a38fe" d="M340.695 185.107c7.108-.621 27.116-1.71 24.596 10.183-1.174 5.541-2.417 10.572-7.107 14.077-9.519 2.066-29.754-1.522-23.709-14.896 2.057-4.55 1.545-6.69 6.22-9.364m-1.049 14.842c7.918.641 9.179.504 16.472 3.27a467 467 0 0 1 1.991-8.968c-4.102-.872-14.333-2.577-17.674-3.629-.534 3.706-.809 5.608-.789 9.327"/><path fill="#8a38fe" d="M306.491 158.864c7.541 1.754 17.942 1.887 24.208 5.421 3.213 1.812 1.103 13.166-2.123 14.89-1.967 1.053-2.423.537-4.451.247-13.693-3.224-37.526-1.364-17.634-20.558"/><path fill="#cab7f5" fill-opacity=".729" d="M444.735 493.855c3.529 4.689 4.321 29.392 13.518 33.516 16.632 7.458 46.615-2.541 63.927-4.449l.686-.072c.224 2.268.543 4.527.956 6.768 2.43 13.418 11.212 33.82 19.438 44.785 11.379 15.168 31.348 29.36 46.834 40.009l.028.633c-3.163 3.753-16.376 1.02-20.754-.275-9.939-3.652-16.129-4.32-25.969-6.934-8.401-3.324-21.392-7.085-29.065-11.578-11.297-6.616-23.587-14.926-34.86-21.701-22.754-13.673-41.427-14.363-66.999-14.774 10.002-22.165 18.699-45.342 32.26-65.928"/><path fill="#cab7f5" fill-opacity=".729" d="m468.802 350.098 1.882.115c1.256 2.481-3.574 7.971-4.329 11.303-1.11 4.904-2.02 9.926-3.029 14.822-8.808-1.184-11.365.135-16.448 6.887-10.279-3.667-13.514-5.275-22.074-11.926-5.031-3.684-10.52-9.686-14.939-14.253 7.339-.043 15.518.6 22.764.06 12.029-.898 24.361-4.365 36.173-7.008"/><path fill="#cab7f5" fill-opacity=".729" d="M375.314 448.717c4.187 2.276 10.698 6.509 14.69 9.307 5.965 4.181 16.981 6.072 21.903 9.753l-.426.64-2.577.405c-11.207.788-23.453 5.208-34.299 1.758-.688-6.391.204-15.31.709-21.863"/><path fill="#cab7f5" fill-opacity=".729" d="m529.357 343.151 7.552-.151c-15.339 12.408-23.243 17.096-31.86 34.786-3.12.586-6.289 1.033-9.429 1.51a381 381 0 0 1-6.171 1.008c10.02-9.718 27.133-32.102 39.908-37.153"/><path fill="#cab7f5" fill-opacity=".729" d="M457.167 476.823c1.699.096 2.008-.049 3.415.901 1.821 2.911.313 7.55-.358 11.16l-.623.502c-.757-1.251-1.79-9.597-2.291-11.92z"/></svg>