<svg xmlns="http://www.w3.org/2000/svg" width="1024" height="1024" viewBox="0 0 1024 1024"><path fill="#8a38fe" d="M551.665 71.981c4.857-9.44 17.381-28.454 29.387-29.01 7.158 3.006-2.096 21.205-2.979 27.85l-.103.809c7.983-3.725 15.281-8.503 23.551-11.7 17.686-6.834 72.507-19.39 89.052-15.818 2.021.436 4.234 1.42 5.164 3.403.587 1.253.504 2.689.059 3.967-3.104 8.92-20.301 16.957-28.486 21.131 10.661-.399 21.327-.804 31.995-.474 16.459.51 92.931 5.43 102.992 12.289 1.587 1.082 2.771 2.678 3.021 4.614.392 3.047-1.479 6.109-3.41 8.293-7.534 8.52-28.508 15.238-39.467 15.999 10.198 5.777 20.813 8.732 31.225 13.197 30.667 13.232 63.102 18.402 95.353 25.694 3.769.852 10.776 4.248 10.255 8.557-2.916 24.113-42.671 31.125-59.478 31.357 13.293 7.379 29.212 12.288 43.032 18.408 9.188 4.069 49.482 13.595 47.866 26.538-2.928 23.458-48.283 23.015-66.036 21.861 10.887 12.042 23.924 22.759 33.984 35.702 3.543 4.557 9.227 11.473 11.257 16.859 12.614 33.477-34.261 13.535-46.445 7.599 1.335 4.305 4.146 14.919 4.317 19.436-.243 12.138-.325 26.346-2.534 38.319-7.246 39.274-21.026 24.383-34.993 1.876-2.737 9.685-5.412 40.796-25.14 35.836-5.632-1.416-10.335-13.037-13.002-18.584-1.833 1.924-3.21 3.85-4.804 5.965 14.719 14.004 19.178 25.28 12.014 45.145-11.467 31.799-53.138 43.864-82.803 32.709-12.589 14.587-25.121 20.486-42.651 27.843 13.479 14.845 26.046 29.723 38.072 45.739 2.095 2.79 4.84 6.05 7.308 8.508 19.238 19.15 38.871 37.909 58.391 56.77 10.449 10.137 21.856 20.447 30.819 31.975 5.436 7.552 13.448 24.82 17.081 33.623.791 1.917 3.483 12.631 4.288 15.602 11.377-2.179 20.821-4.565 32.618-6.224 30.543-4.295 61.01-6.746 91.717-9.331 10.373-.438 21.454-3.236 31.683-3.759 12.234-.626 26.005-1.698 38.165-1.629v11.1c-6.43 1.448-14.42 2.814-20.98 3.548-9.538 1.067-20.379 4.432-29.763 5.023-29.716 1.872-58.901 8.748-88.373 11.048-16.572 1.294-33.9-.492-50.473-.75l-5.067-3.427c8.023 29.565.297 33.873-2.498 59.422-11.992 12.168-7.454 15.378-14.192 29.774-1.918 4.097-8.691 12.532-11.556 16.604 12.747 5.799 26.863 8.413 39.848 13.871 23.275 9.783 47.771 22.334 69.143 35.694 8.305 5.192 16.143 11.133 24.282 16.581 6.099 4.081 13.186 7.321 18.401 12.563 2.338 2.351 3.742 4.956 4.867 8.055.525 1.445.984 3.189.449 4.706-1.873 5.305-40.032 18.174-46.704 20.348-13.952 4.546-28.346 7.781-42.521 11.549-10.046 2.67-19.783 6.504-29.857 8.997-29.999 7.426-60.475 12.95-90.541 20.189a1977 1977 0 0 0-43.165 10.836c-13.494 3.543-48.454 14.28-60.791 8.552-16.45-7.637-35.54-19.26-51.361-28.605l-69.418-41.178c-25.514-15.045-52.083-29.854-77.177-45.364-12.255-7.575-53.795-32.019-58.071-44.349.082-2.304.804-3.758 1.61-5.918-3.18-1.431-6.45-1.439-9.86-1.74-7.693-.679-16.138-1.314-23.6-3.313-11.973 6.92-30.134 16.922-44.081 19.603-7.106 1.366-29.308-1.692-37.781-2.612-17.707-1.924-36.622-3.417-54.241-5.883a494 494 0 0 1-57.892-11.923c-10.48-2.807-18.8-5.658-28.974-8.968-13.011-4.233-19.715-5.009-31.928-12.341-8.984-5.394-14.07-10.814-21.858-16.207-18.884 8.522-35.531 7.624-55.788 9.103-8.002.584-16.156 1.542-24.089 2.062v-13.814c11.897-1.131 66.966-3.432 73.544-7.294 1.39-2.596-1.698-5.587-3.094-8.127-30.621-55.706 12.098-117.404 42.67-161.302a1034 1034 0 0 1 48.82-64.824c15.877-19.31 33.011-38.577 48.763-58.126 6.588-8.175 18.724-17.407 26.678-24.586 35.462-32.007 80.254-51.772 127.698-56.958 15.819-1.743 32.36-4.704 48.387-2.276 7.053 1.068 10.502 4.022 15.402 8.739 5.71-.159 10.039-1.325 15.599-1.382 2.123-.022 2.917 1.128 4.26 2.673 3.156-4.591 5.797-8.431 8.597-13.263-1.886-3.048-3.264-4.433-5.689-7.068-4.191 2.833-14.652 9.482-19.656 4.955-8.24-8.196-2.878-20.666-4.197-30.352-.796-5.847-13.718.854-20.423-5.078-17.75-15.703-5.891-43.513-9.93-64.086l-.117-.552c-4.028.074-11.752 1.66-14.82-.367-12.732-9.194-3.838-27.824.517-38.723 4.787-11.98 14.007-18.784 19.28-29.25-8.462 1.587-24.803 8.572-31.85.298-2.204-2.588-1.999-8.306-1.519-11.631 3.485-24.163 24.361-41.13 44.043-52.987 7.091-4.214 13.11-5.784 20.169-11.138-4.349-.289-9.127.083-13.347-1.027-3.458-.909-6.395-3.063-8.117-6.231-.737-1.356-.785-2.927-.259-4.369 4.823-13.238 58.599-22.864 72.431-29.303q.267-.126.53-.256c-13.419-3.01-26.19.323-39.435-2.641-3.151-.706-6.667-2.24-8.368-5.145-1.048-5.97 10.575-11.036 15.283-12.463 28.247-8.565 59.05-13.652 88.522-9.84 3.84.497 7.864 2.514 11.293 4.2m6.557 731.316-2.161 6.026c2.313 6.882 5.104 19.095 1.502 25.936-5.128 9.742-14.448-6.126-18.41-9.333-3.53-2.735-8.668-4.689-12.769-6.489-2.553-4.327-5.525-9.688-8.264-13.803-.259 31.239-33.126 15.903-47.437 5.044-15.639 6.27-29.756 10.738-46.919 10.33-10.459-.25-17.565-1.037-28.059.263 9.404 8.59 29.874 17.983 42.029 24.577l82.163 44.36a1318 1318 0 0 1 74.376 44.667c19.3 12.417 26.411 19.872 48.004 29.556l1.664 5.481c3.334 1.472 4.38 1.998 7.421 4.027 8.922-2.08 16.961-5.855 25.386-7.848 26.471-6.262 52.541-13.7 78.742-20.989 5.71-1.588 12.099-2.955 17.665-4.728 22.712-4.528 45.57-9.006 68.222-13.82 12.862-2.734 26.361-7.755 39.094-10.561 18.828-4.148 44.691-9.392 61.842-18.614-7.228-3.533-14.904-6.302-21.943-9.992-7.615-4.078-14.434-9.757-21.946-13.982-14.863-8.356-30.009-16.239-45.085-24.24-15.773-8.37-33.052-14.558-49.064-22.451-3.779-1.863-6.158-4.773-8.386-8.203-11.386 12.763-22.721 18.536-40.239 20.312-7.379.748-16.76-1.491-22.304-6.456-7.93-7.345-6.849-16.264-4.21-25.652-17.782 11.765-24.06 15.631-45.469 16.481-1.949 1.926-3.841 3.979-6.533 4.704-8.146 2.196-16.809 3.78-25.082 5.427a3329 3329 0 0 1-53.794 10.261c-12.321 2.337-32.159 8.179-43.891 7.987-1.228-.02-2.333.059-3.231-.948-.467-.523-.981-1.385-.87-2.107.208-1.352 1.152-2.441 2.273-3.165 7.264-4.695 79.813-18.885 92.332-21.184 9.024-1.657 19.423-1.982 27.832-5.573-4.28-4.692-8.607-10.019-8.396-16.856.274-8.864 8.68-17.986 14.587-23.918 1.489-1.495 4.611-4.215 5.49-5.863l-.26-.24c-12.251 3.623-29.871 6.824-42.733 4.619-4.768-.84-10.543-3.808-15.404-3.288-11.128 1.189-22.457 4.777-33.503 6.122-13.501 1.643-27.474 2.259-41.073 3.406l.705 4.163c.831 5.141 4.836 11.304 6.106 16.554M467.235 391.05c-2.787 2.413-6.76 5.672-9.138 8.395-4.049 4.636-16.305 26.353-21.677 27.269-1.691-.889-2.384-2.591-3.383-4.297.901-6.987 2.412-11.805 6.687-17.577-17.28 2.647-22.848 3.883-39.733 8.982 1.344 16.519 7.312 35.654 14.706 50.56 13.024 26.255 57.266 47.156 85.78 44.61a59 59 0 0 0 4.792-.612c7.81-6.684 18.006-14.575 25.215-21.041-6.146-6.344-34.969-40.928-29.032-49.402 1.054-.29 1.406-.631 2.41.084 5.768 4.111 10.474 11.596 15.801 16.209 20.266 17.548 41.958 30.463 67.468 38.384 40.898 9.653 76.977 8.835 114.269-13.183 1.99-1.175 3.885-2.579 5.739-3.964-6.196-5.702-8.859-9.722-12.151-17.565-3.352 5.502-6.81 8.905-13.431 10.392-5.685 1.277-17.454 1.739-21.451-3.003-1.007-6.457 18.178-8.97 23.655-11.553l-.319-.706c-2.2-4.818-6.517-9.879-6.803-14.241 3.498-9.018 13.921 3.701 16.609 7.538.001-4.092 1.39-11.597 2.589-15.611-8.645-8.254-15.001-9.731-26.932-9.762-12.236 13.205-28.017 23.302-46.472 23.596-15.116.241-33.242-1.557-44.735-12.519-15.994-15.255-10.917-38.485-4.823-57.027-12.099-17.868-25.385-34.605-38.265-51.898a219 219 0 0 0-5.193-6.724c-2.341 3.982-9.036 20.111-15.022 15.596-10.865-8.196-9.811-26.358-6.757-38.075l-.466-.51c-3.88-4.317-6.464-9.998-9.836-14.618-7.3-10.003-20.163-19.026-32.756-20.023a29 29 0 0 0-1.968-.079c-38.915 2.994-49.337 48.186-23.963 73.729 6.013 6.054 31.022 12.197 30.802 17.37-.606 14.231-2.884 26.634-2.216 41.276m293.001 13.615c-19.301 2.682-37.311 7.039-50.034 23.217-9.111 11.586-9.254 28.203 3.448 37.476.719.525 1.136.764 1.964 1.102 2.177-2.26 4.778-4.986 6.739-7.419 3.448-4.281 10.823-7.881 14.038-11.805 11.135-13.588 25.551-27.106 36.214-40.758-4.254-1.56-7.704-2.672-12.369-1.813m-30.693 64.151c5.651 1.4 10.745 1.658 16.563 1.596 12.386-1.741 19.182-2.745 28.874-11.624 2.07-1.897 5.417-4.844 7.144-6.965-2.498-5.125-10.252-23.096-15.037-24.462-10.258 5.29-14.653 13.163-21.817 21.762-5.208 6.25-11.655 12.656-15.727 19.693M493.125 699.538l2.179-.092c1.293-1.776-2.653-7.929-3.721-10.24l-18.049-38.285c-3.256-7.063-6.102-14.318-9.199-21.455-2.937-6.768-5.821-6.28-12.45-5.919-1.685.558-3.174.763-4.117 2.152.567 6.076 24.086 64.63 27.976 73.577q8.688.247 17.381.262m54.796 114.54c-1.887.584-3.996 1.174-5.803 1.927l6.033 4.542 1.426.835.824-.393c.349-2.499-.582-4.394-1.841-6.494zm69.454-382.677c13.596.348 30.931-7.205 40.258-16.726 25.825-26.359 7.508-57.132-27.269-54.979-14.185 1.295-30.624 4.891-40.103 16.579-10.032 12.369-19.708 32.974-4.306 45.546 8.823 7.202 20.462 8.466 31.42 9.58m161.144-34.173c7.549-9.997 8.548-16.408 7.407-28.978-.546-6.024-20.431-4.469-26.462-8.349-7.761-4.995-11.919-7.934-18.79-14.275l-.122.757c-.417 2.669-.725 6.785-.504 9.352.83 9.605-7.181 11.932-15.305 10.262-30.637-6.296-50.256-34.012-55.177-62.971-12.126 8.023-27.099 11.84-41.272 15.651-12.851 3.456-28.869 6.412-42.175 4.265-16.532-3.97-13.387-17.345-5.779-27.104l-.255-.685c-8.972 2.634-33.646 9.04-40.871 12.367 4.974 7.988 11.467 13.166 16.45 20.223 8.633 12.226 20.067 24.433 28.473 36.47 11.132-11.378 27.66-18.013 43.524-17.879 14.729.125 29.345 1.112 40.236 12.183 15.825 16.087 16.265 31.024 8.468 51.029 13.075-2.012 17.557 1.41 27.153 9.428 15.161-17.048 24.046-22.117 46.866-25.82 10.291-1.621 18.4.08 28.135 4.074M676.863 709.866c-.547 1.936-3.032 9.501-2.503 10.958l.427.074 8.05-2.32c-2.029-6.036-1.298-25.91-5.606-27.764-8.611 7.518-3.599 10.078-.368 19.052m98.551-289.088c3.331 5.595 8.143 14.31 11.667 19.457l.998 1.263.932.033c5.425-5.544-.507-25.739-6.729-30.279zM664.453 724.23l-47.191 5.435c-22.135 2.615-39.619 6.143-62.075 3.138 7.213 16.635 5.146 24.113-12.741 29.408 1.275 2.804 2.539 5.891 4.191 8.458l2.889 6.038c13.517-7.277 29.777-7.76 44.72-10.312 9.218-1.575 19.385-3.346 28.691-4.027 6.131-23.693 40.018-31.718 43.111-36.918-.781-1.184-.291-.744-1.595-1.22m-338.076 73.793c12.927.05 25.84 1.121 38.839 1.492 7.225.206 16.465 2.667 24.154 3.224 19.761 1.431 40.022 2.509 59.823 1.781 7.163-.264 14.376-4.174 21.266-5.432 7.279 2.131 13.279 5.111 20.11 8.186 4.501 2.026 12.617 7.446 16.899 4.23 5.768-7.75 4.517-12.005-3.327-17.862-6.11-4.562-12.722-7.823-19.858-10.433-3.417-1.222-8.585-3.062-10.031-6.675.34-15.48 34.765 4.875 40.168 7.655 15.973 8.219 12.335-9.252 6.1-16.56-10.309-11.792-26.194-15.919-40.21-21.42-1.598-.622-3.258-2.048-3.876-3.738 3.277-16.615 60.271 10.683 70.078 5.709 3.318-1.683 2.71-6.451.672-8.888-14.25-17.045-53.485-32.735-75.634-30.007a391 391 0 0 0-34.144 4.719c-18.183 3.411-51.018 10.341-69.562 9.383l-3.738-3.105c-4.245 6.257-7.825 13.595-11.213 20.387a1241 1241 0 0 0-17.92 38.233c-2.661 5.899-5.746 13.47-8.596 19.121m208.386 6.546c4.049-1.238 8.528-2.247 12.365-3.492-3.148-12.744-9.981-28.701-15.653-40.645l-5.352-.994.202.643c4.351 13.548 18.362 29.911-2.184 39.893 1.526 2.523 3.241 5.523 4.899 7.896 2.326-1.722 3.075-2.082 5.723-3.301m35.529-186.714c-5.278 20.627-8.691 41.086-14.309 61.794-3.416 12.592-10.464 26.458-12.792 37.927 2.436 2.005 4.879 3.954 7.678 5.455 26.704-7.669 54.024-5.613 80.941-8.971 12.259-.288 22.011-.673 34.259-.012-.305-3.221-.596-7.699-1.306-10.741-5.788-3.793-12.947-7.085-18.303-11.028-24.645-18.14-44.879-41.498-66.97-62.502-1.872-1.784-3.344-4.182-5.034-6.022-1.392-1.517-2.921-4.671-4.164-5.9m241.913 135.884c-3.066-3.85-7.789-7.038-11.748-9.6-25.453-16.466-55.647-22.186-85.514-22.554-5.711-.071-10.959-1.353-17.019-.836l-.63.05c-2.346.244-4.367.512-6.736.471l-.535.602c.511 1.508 2.218 5.677.956 6.743-6.144 5.191-48.499 25.984-50.894 30.656 1.286 5.131 23.46 1.437 27.615.637a702 702 0 0 0 14.139-2.92c6.951-1.479 29.277-7.599 31.54 3.441.624 3.048-1.019 6.271-2.779 8.643-5.351 7.211-33.47 28.602-32.176 35.997.231 1.319 1.155 2.227 2.277 2.851 4.266 2.373 10.143.947 14.539-.46 17.477-5.595 32.443-18.227 48.707-26.545 2.892-1.254 10.124-3.903 10.962.999 2.077 12.138-25.43 31.772-11.942 42.394 5.494 3.565 16.779 2.061 23.332.332 18.299-4.829 28.716-18.689 37.725-34.392 7.66-13.351 7.991-21.643 8.181-36.509"/><path fill="#8a38fe" d="M842.528 871.658c1.31-.076 4.051-.23 5.203.488 6.686 4.258 13.659 8.061 20.542 11.981 7.962 4.534 8.983 7.227 8.745 15.906-10.691 3.79-22.903 6.024-33.801 9.165-22.675 6.536-42.459 12.927-66.045 15.828-10.399-.467-19.652-8.736-28.577-13.487-4.05-2.157-8.539-9.91-4.621-14.163 2.822-3.248 8.635-4.596 12.847-5.588 27.29-6.431 57.851-17.494 85.707-20.13m-90.025 31.601c3.243 2.703 14.964 10.653 19.522 11.47.27.048 1.257-.238 1.614-.333 21.554-7.129 44.776-10.705 66.81-16.271 6.923-1.749 14.019-3.107 20.96-4.838-3.101-2.632-19.077-12.518-22.499-11.738-22.769 7.26-45.167 10.979-68.146 17.133-5.258 1.408-13.417 2.994-18.261 4.577"/><path fill="#8a38fe" d="M786.689 858.137c2.995-.253 9.934-1.218 11.447 1.961 2.247 4.719-3.696 6.386-6.988 7.25-9.782 2.568-19.741 4.279-29.579 6.612-28.298 7.065-56.711 13.385-85.18 19.73-19.507 4.347-38.86 9.189-58.561 12.629-3.081.32-7.565 1.334-10.252-.058-5.231-2.462-2.083-7.452 2.213-8.422 14.389-3.248 29.043-7.918 43.378-11.054 16.892-3.696 33.451-8.016 50.301-11.692 16.291-3.554 32.857-5.975 49.202-9.256 11.434-2.337 22.35-6.007 34.019-7.7"/><path fill="#8a38fe" d="M723.01 840.168c4.233-.424 9.568-1.02 12.356 2.85.108 1.031.228 2.214-.691 2.866-6.266 4.445-22.006 6.727-29.164 8.288a3533 3533 0 0 1-57.557 11.924c-19.926 4.142-38.698 9.612-58.702 12.565-4.898.7-12.182 2.845-14.115-3.189.822-6.628 20.688-9.333 25.953-10.77 12.279-3.349 25.055-5.186 37.486-7.852 28.161-6.039 55.986-12.126 84.434-16.682"/><path fill="#8a38fe" d="M654.702 788.676c2.996-.532 5.036.262 6.575 2.865.542 6.498-12.445 7.147-17.131 7.92l-21.218 3.601c-4.029.045-6.327.652-7.822-3.404 1.199-7.716 31.95-9.971 39.596-10.982"/><path fill="#8a38fe" d="M452.91 281.157c1.614-.14 3.898.046 5.923.689 10.138 3.221 25.489 16.325 24.116 27.89-.055.466-1.298 2.157-1.795 2.322-7.764 2.588-14.374.906-22.108 4.762l-.592.301c-2.196 1.17-5.366 2.537-7.789 1.498-2.822-6.634 11.051-13.592 15.669-15.706-5.919-3.186-35.577-17.933-13.424-21.756"/><path fill="#8a38fe" d="M604.019 467.811c7.443.442 10.742 6.938 17.048 9.867 4.472 2.077 12.344-.522 14.44 4.787-.294 2.752-2.044 4.009-4.116 5.704-11.038 2.963-24.901 1.228-30.182-10.321-.013-4.332.589-6.392 2.81-10.037"/><path fill="#b485fe" d="M262.324 451.96c.712.258 1.024.554 1.673.989 1.261 3.517.087 10.686.543 15.099 1.65 15.983-.018 44.652 13.516 55.593 8.908 7.202 29.379 5.987 40.348 6.845 38.985 3.051 77.638 9.979 116.203 16.269 14.497 2.673 28.98 4.417 43.714 4.993 31.403 1.229 64.79.346 95.885-4.377.414.281 1.942 1.216 2.298 1.15 4.494-.832 10.02-1.702 14.41-2.341a1543 1543 0 0 1 42.9-5.565c6.95-.819 21.278-3.332 27.518-1.266 2.563-2.751 3.769-3.945 6.912-5.956 4.593 2.416 19.905 18.626 18.566 23.661l-.581.246c-1.25-.963-1.642-1.323-3.114-2.002-1.913 1.662-.32 2.744-1.795 4.16-.6-.315-2.629-1.415-3.104-1.161-6.056 3.081-12.878 5.59-18.993 8.679-20.522 10.365-38.775 22.538-56.002 37.816-3.09 2.74-5.198 7.196-9.103 10.737l-6.445 7.098c-5.921-4.065-10.435-7.131-15.57-12.245 1.973-7.802 12.981-28.448 8.47-34.347-5.493-2.647-8.491 5.453-13.64 6.582-11.972 2.996-25.412 2.964-37.416 4.751-35.632 5.302-68.973 7.454-104.802 3.026-10.103-1.248-22.584-.088-33.465-1.054-26.014-2.234-51.153-7.843-77.353-8.484-13.271-.325-16.131-7.346-20.814 10.338-13.85-8.609-28.536-12.024-44.152-21.952a462 462 0 0 1-32.379-22.586c-11.018-8.405-14.125-12.537-26.922-19.615 14.542-21.305 41.179-50.058 60.39-67.662 3.017-2.765 8.584-5.577 12.304-7.419"/><path fill="#b485fe" d="M287.219 702.004c9.598.258 25.342 4.316 35.569 6.016 15.597 2.594 21.633 1.679 36.444 1.376-3.346 8.161-8.132 10.946-12.377 17.786-15.029 24.217-30.053 49.964-36.264 78.076-.753 3.406-.238 6.749-1.442 10.217-3.268 2.134-18.502-.437-22.766-1.221a196 196 0 0 1-11.405-1.797c-20.087-3.815-41.571-5.325-61.489-9.682.139-4.725.402-10.362-.457-14.94 7.97-4.246 6.38-3.144 10.271-11.568.624-.197 1.604-.513 2.215-.54 2.722-.12 1.281-3.697 3.481-5.768 1.593-.396 1.613-.334 2.986-1.184.843-2.073.095-3.75-.479-6.119.548-1.086.127-.689 1.292-1.159l1.488.836c1.399-.497 6.455-8.839 8.007-10.743 9.907-12.153 20.79-24.851 31.437-36.368 4.186-4.527 10.649-7.979 13.489-13.218"/><path fill="#8a38fe" d="M649.706 327.641c5.337-.932 9.043 1.007 13.494 1.831 13.948 2.582 24.365 30.722 2.57 20.015-6.391-3.174-12.809-4.44-19.689-6.039-4.597-1.069-11.544-2.018-13.37-6.955.407-6.62 12.011-7.997 16.995-8.852"/><path fill="#8a38fe" d="M761.653 367.621c24.55-2.375 24.791 28.633 11.358 20.834-8.744-7.771-7.631-6.119-19.028-8.414-1.706-.344-2.874-1.05-3.778-2.572-.912-6.107 6.844-8.826 11.448-9.848"/><path fill="#b485fe" d="M201.798 678.181c8.992-.111 15.863 3.73 24.127 6.517 7.522 2.536 14.106 3.765 21.166 7.626-4.638 3.222-13.286 9.684-18.848 10.943-.926.209-1.875 3.257-2.204 4.066-1.457.595-2.947 1.18-4.352 1.89-10.476 5.291-63.1 58.174-71.343 68.718-2.958 3.784-4.688 7.342-6.248 11.867-9.14-2.602-19.512-7.001-28.475-10.577-15.461-6.3-30.308-13.076-38.267-28.797-1.135-2.24-3.522-6.78-3.668-9.127 4.63-2.23 5.059-5.603 7.853-9.955l.732-.139 1.626 1.401c3.425.707 5.78-5.979 10.325-6.951 2.749 1.62 5.369 2.761 7.545-.352-.229-6.981 4.698-4.721 10.139-3.857 2.498-2.836 3.473-3.236 6.784-5.2 1.098-.651.954-1.537 1.046-2.76 2.321-.258 6.827-.52 8.647-1.805.649-.457.686-1.958.866-2.951 2.428-1.748 3.286.833 6.597-.707 1.237-2.068.868-2.872.807-5.476l.817-.505c2.46-.165 5.22.84 7.672 1.52 3.413-3.773 3.4-3.207 8.123-5.059 4.027-1.579 4.134-3.227 5.682-6.952l.576-.231c.963 1.301 1.181 1.56 2.344 2.681 1.82.308.946.393 2.706-.352 2.434-5.778 6.066-6.172 11.7-8.426.676-.27 1.79 1.108 2.362 1.635l.891-.116c.404-1.058.709-1.998 1.058-3.072 1.938-2.173 17.304-4.632 21.214-5.497"/><path fill="#b485fe" d="M278.505 621.914c9.726 3.822 18.676 3.164 28.597 4.758 30.077 4.834 60.436 6.577 90.748 9.236 14.47 1.269 28.339 1.529 42.825 1.084 1.912 9.174 6.446 20.604 10.084 29.307 2.215 5.296 4.708 9.723 6.674 15.342-8.336-2.512-17.397-1.729-26.205-1.641-12.946.07-25.871-1.711-38.48-1.856-37.17-.426-73.541-1.187-109.781-10.495-4.388-1.335-10.616-1.508-14.821-3.032-5.946-2.155-12.071-3.993-18.004-6.041 4.773-6.921 10.332-12.69 15.548-19.212 4.426-5.535 8.665-11.665 12.815-17.45"/><path fill="#b485fe" d="M149.743 577.815c6.794 1.713 11.625 7.194 17.823 9.762 11.999 4.971 23.545 8.697 35.215 14.582 17.241 8.694 34.775 16.066 51.279 26.249a138 138 0 0 0-10.592 11.321c-2.497 2.936-9.014 11.489-12.26 13.664-5.54 3.711-46.63-2.083-49.385-.513-1.745.938-2.136 1.332-4.125 1.171-7.34-3.937-4.171-.722-7.131-.101-3.316-2.373-6.307-.616-10.307-.408-6.362.475-12.931-.643-19.15 1.249-15.317 4.661-38.142 3.182-52.179 10.173 10.52-21.058 43.413-72.295 60.812-87.149"/><path fill="#b485fe" d="M708.948 577.918c4.932 3.911 12.566 14.19 17.692 19.398 8.079 8.209 19.007 15.383 25.781 23.98l-6.68-2.302c-7.422 4.445-8.621 4.227-16.984 6.423-3.883 4.557-6.642 3.918-11.855 6.211-15.628 6.875-32.384 14.693-44.303 27.188-4.655 4.88-8.314 10.827-11.833 16.53-1.454 1.892-2.705 3.231-4.311 4.969-11.877-3.319-27.23-20.923-34.067-31.11l6.368-.284c7.652-7.388 16.791-16.961 24.116-24.881.473-.512 1.878-3.641 2.234-4.451 1.032-.314 2.311-.578 3.26-1.071 1.122-.583 1.085-1.232 1.348-2.374.077-.336.132-.677.216-1.011 1.918-7.654 40.615-32.2 49.018-37.215"/><path fill="#8a38fe" d="M636.073 388.524c13.676-.682 11.536 10.032 6.297 18.508-4.267 6.904-9.133 11.197-17.105 13.095-7.553-.579-13.325-3.746-9.958-12.263 3.649-9.233 11.939-15.391 20.766-19.34"/><path fill="#b485fe" d="m396.096 400.191 6.738-.137c-2.492 1.547-10.773 5.77-11.977 7.835-7.127 15.973 1.582 40.364 6.563 56.056 1.448 4.56 10.766 17.046 8.286 19.418-5.567.643-51.511-12.57-59.082-15.031-10.364-3.141-22.135-4.381-32.933-7.321-2.057-2.156-3.127-3.346-5.568-5.146-.63-9.092-.257-17.31-.055-26.399 4.371-6.506 13.444-8.742 20.47-11.474 16.769-6.522 33.695-12.182 51.48-15.19 5.459-.923 10.508-2.206 16.078-2.611"/><path fill="#b485fe" d="M766.758 686.689c2.88-.485 6.925.107 9.926.195 14.586.426 23.27 2.914 36.508 8.982 8.098 12.732 6.928 29.121 6.711 43.606-12.108-9.218-22.892-15.221-36.764-21.303-25.488-11.522-47.665-9.668-74.906-10.364l.416-.541c11.029-14.23 40.555-18.398 58.109-20.575"/><path fill="#b485fe" d="M549.152 622.665c1.843-.316 2.989-.759 4.468.504.496 4.231-11.623 39.699-14.154 44.54-6.317 1.886-16.224 1.913-22.964 2.636-6.486.697-12.788 1.57-19.249 2.457-1.463-2.261-2.524-4.484-3.737-6.88-2.164-5.166-13.461-27.974-12.622-31.326 2.648-2.316 60.839-10.768 68.258-11.931"/><path fill="#8a38fe" d="M726.65 422.529c9.572-.482 9.748 6.217 6.359 13.241-3.667 7.6-7.589 11.827-15.508 14.897-18.137-.019-5.247-18.46 1.88-23.905 2.68-2.047 4.251-2.859 7.269-4.233"/><path fill="#b485fe" d="M759.8 641.679c5.349-.56 9.347-.501 14.392 1.702 13.22 5.771 25.27 18.033 30.9 31.194-15.652-4.187-40.6-9.068-56.343-5.089-1.798.382-5.801-.011-5.853.009-10.352 4.089-18.346 4.064-29.192 3.358-2.039-.133-6.895 3.734-9.409 2.572l-.159-.959c1.289-1.874 3.818-7.384 4.676-8.237 11.34-11.27 35.464-22.616 50.988-24.55"/><path fill="#b485fe" d="M542.824 489.835c6.36 1.533 15.159 6.79 21.357 9.543 5.321 2.363 11.802 4.432 16.595 7.404l-17.362 1.807c-5.3.251-10.848-.178-16.163-.09-7.253.119-14.484.332-21.741.424 5.568-4.67 11.857-13.338 17.314-19.088"/><path fill="#b485fe" d="M324.29 804.65c3.749 1.937 10.359 4.11 14.66 5.846l-5.064 2.035c-3.594 1.252-8.921 3.815-11.978.946-.967-3.205.876-5.75 2.382-8.827"/><path fill="#b485fe" d="M230.822 672.876c4.207.979 15.933 4.817 19.085 7.652l-.612.285a42 42 0 0 1-2.787-.4c-3.608-.654-16.152-2.831-17.841-5.242z"/></svg>