<svg xmlns="http://www.w3.org/2000/svg" width="1024" height="1024" viewBox="0 0 1024 1024"><path fill="#8a38fe" d="M482.566 79.183c13.136-1.256 29.15 2.767 40.062 10.253 13.564 9.306 26.507 20.998 34.251 35.688 4.591-1.657 10.341-3.065 15.056-4.541 23.333-7.305 48.384-11.838 72.838-12.549 27.129-.608 58.169-.486 79.07 19.351 30.924 29.348 9.368 71.888-15.483 96.883-5.719 5.753-12.215 10.768-17.861 16.58 7.736 5.771 16.598 7.593 24.081 15.324 9.461 9.773 14.944 23.885 14.561 37.39-1.029 36.267-17.063 53.985-53.288 54.461 6.599 11.94 13.593 29.216-4.142 35.031-3.842 15.428-7.341 17.462-14.64 31.078 1.641 1.242 3.697 2.584 5.417 3.774 6.453-3.151 14.57-10.348 20.435-14.675 28.547-21.062 52.843-47.73 71.476-77.901 3.765-6.096 11.517-18.909 13.903-25.631 6.462-18.208 12.148-37.453 16.565-56.275.849-3.689 2.499-7.619 3.344-11.248 2.479-10.649-.739-17.916 13.132-18.191-3.224-24.791-.645-56.632 7.578-80.216-14.005-2.305-14.203-5.097-22.389-16.177-2.527-3.421-13.181-15.705-3.895-17.649 10.965-2.295 21.209 8.842 30.225 14.289 3.781-6.311 7.107-12.841 14.518-15.482a16.52 16.52 0 0 1 13.366.918c10.419 5.438 15.453 21.935 19.011 32.476 5.785-13.525 21.939-23.05 36.013-14.047 6.752 4.32 7.947 17.826 8.783 25.37 5.356-3.632 11.447-6.944 18.088-7.015a18.27 18.27 0 0 1 13.017 5.166c3.92 3.874 6.164 10.393 5.968 16.222-.788 23.407-10.468 52.256-21.029 73.104-1.771 3.497-8.801 10.939-11.45 13.714 7.307 5.127 9.182 8.422 7.358 17.381-1.653 8.124-6.108 14.969-8.665 22.516-32.034 94.581-103.683 175.355-199.084 208.617 2.255 9.4 5.214 18.71 6.965 28.025 3.654 19.435 3.302 36.02-2.759 54.826-1.509 4.684-4.28 11.474-5.176 15.865-.859 4.211-.093 11.335-.778 16.272-3.557 25.609-7.158 38.953-21.965 60.305 3.219 4.38 8.027 10.669 12.225 13.998 15.727 11.767 33.762 21.764 53.079 26.29 48.858 11.446 114.996 8.644 129.841-50.124 4.745-18.785 5.142-40.271-5.776-57.193-12.731-19.732-43.697-31.726-64.67-17.702-20.874 13.591-21.915 54.147-.568 67.706 7.162 4.55 28.751 5.677 24.953 19.346-3.996 14.379-21.877 17.546-34.266 12.983-38.555-14.089-47.067-66.278-35.86-101.077 13.565-42.121 61.312-51.756 99.326-38.916 51.505 17.396 69.232 84.31 51.967 131.891a120.48 120.48 0 0 1-63.473 69.237c-32.37 14.591-80.033 17.386-113.608 5.155 8.524 25.58 11.177 49.179 12.231 76.016.313 7.972-.728 18.904.437 26.081 16.127-.96 30.798-4.386 47.391-3.27 18.847 1.268 24.948 12.889 8.463 24.899 10.696 3.036 17.132 6.363 21.927 17.106-1.666 4.499-4.176 9.037-6.396 13.324 5.756 5.007 7.006 6.366 9.065 13.727-1.28 3.275-2.022 4.934-4.256 7.889-8.693 10.856-30.613 14.857-44.379 15.608-29.636 1.618-61.794-1.924-91.363-4.658-10.458-.967-21.543-1.855-31.435-4.082-20.791-4.679-11.081-27.81-11.096-42.089-.035-7.55-9.357-1.314-11.805-4.914-4.717-6.936-.161-19.186.231-26.918.675-10.625 1.147-20.608 2.036-31.01 1.164-13.635-1.188-26.392.309-39.867 1.627-14.531-13.998-41.163-21.463-53.455-2.068-3.405-5.005-10.332-7.381-13.288-3.854-4.796-19.356-4.052-26.156-4.269-5.29 11.949-3.958 17.512-7.001 28.114-6.123 21.334-19.189 49.872-36.271 64.158-23.998 20.071-59.021 22.163-89.031 21.586-4.838-.093-14.863-.328-19.572-1.004-8.541-1.225-14.765-3.512-23.956-4.296-3.496 13.006-4.661 25.434-10.794 37.843-3.823 7.734-9.279 15.427-19.084 10.857-4.754-2.216-6.693-9.132-8.172-13.664-15.24 27.592-28.57 20.808-32.367-7.661-9.719 6.612-17.617 10.448-29.233 5.39-5.63 19.393-4.322 40.066-18.581 54.5a40.6 40.6 0 0 1-13.864 9.205c-14.783 5.969-46.747 7.954-63.043 8.139-3.734 4.173-5.677 9.376-9.199 13.661-8.113 9.87-22.15 11.184-31.407 2.049-6.832-6.742-7.783-12.211-7.977-21.213-5.685-.642-11.512-1.134-17.132-2.132-7.893-1.4-15.277-3.073-23.261-4.02-4.113 9.434-12.071 18.762-23.281 18.422-12.961-.394-23.179-13.077-22.377-25.725.403-6.364 2.868-10.537 7.556-14.63-4.039-8.683-3.948-14.003-4.585-23.486-4.032.167-7.434.263-11.352-.843a27.55 27.55 0 0 1-16.817-13.575c-3.298-6.274-3.668-13.357-1.637-20.092 2.907-9.643 9.918-14.585 18.292-19.065-8.89-30.038-6.904-64.862 32.328-65.405 1.423-16.943 6.949-41.693 19.336-54.144 12.437-12.501 28.209-10.446 44.47-10.311.704-2.496 2.651-9.079 2.737-11.486.322-9.018-2.41-20.196 3.437-28.11 2.673-3.617 5.33-4.262 9.413-4.864 3.005-5.938 5.244-12.54 8.385-18.32 6.107-11.236 17.228-21.075 26.293-30.344.85-17.597 7.331-16.998 19.293-27.021 13.185-11.047 28.291-23.238 43.366-31.502 38.657-21.191 88.457-44.619 132.34-51.219 6.799-8.876 9.391-12.042 18.521-18.406-3.782-2.852-8.702-6.066-12.654-8.884-17.831 16.29-28.647-8.835-31.892-23.217-14.754 13.944-37.571 18.046-56.669 11.723-14.036-4.647-26.628-15.304-33.554-28.409-6.037-11.427-6.499-23.355-6.465-35.998-14.604-.173-24.862 1.305-39.851-1.958-26.019-5.664-52.816-17.405-45.558-49.266 5.859-25.726 30.353-42.716 50.667-57.224 8.778-6.269 18.206-12.367 27.255-18.276 14.797-8.419 28.875-16.566 43.137-25.878-2.079-5.473-4.623-14.909-2.811-20.659.353-1.119-3.649-19.085-3.99-22.043-1.914-16.604-1.839-39.096 9.275-52.83 15.93-19.685 43.064-12.738 64.897-14.105a74.3 74.3 0 0 0 23.781-5.619c26.552-11.262 34.895-32.89 66.652-36.45M218.308 346.14c5.095 14.177 21.856 15.56 34.348 19.247 14.496 4.278 26.765 2.188 40.998 3.147 8.875-16.491 21.753-21.254 39.78-21.211-2.828-9.825-3.497-28.807-2.135-38.712l.053-1.215c-3.076-.635-7.507 6.163-10.682 7.756-2.891 1.45-7.119 3.676-9.417-.242-1.034-1.943-1.209-5.459-.27-7.609 12.487-26.538 58.466-59.372 81.697-73.754a371 371 0 0 1 37.328-19.964c50.446-23.298 122.114-38.131 175.94-18.253 13.85 5.115 20.908 9.823 27.415 22.766l-2.68 4.539c3.46 5.138 7.651 8.801 11.392 13.583 3.4 4.343 5.75 10.004 8.482 14.734l.545-.4c6.349-4.563 12.484-5.541 18.419-9.825 4.258-3.315 7.034-7.942 10.878-11.694 3.646-3.559 7.428-6.502 11.078-10.21 15.174-15.414 42.424-46.341 28.112-68.827-6.614-10.391-27.652-19.292-39.501-20.703-8.106-1.191-24.941-2.747-32.832-1.596-8.254.883-16.626 1.689-24.783 2.586-66.278 7.285-126.099 35.193-185.281 64.082-4.391 2.143-8.676 5.198-13.084 7.395-14.604 7.234-28.879 15.539-43.348 22.898a995 995 0 0 1-37.691 18.288c-18.925 8.821-32.179 15.167-49.141 27.593-22.428 16.43-47.051 29.309-64.132 52.3-5.474 7.183-10.514 14.026-11.488 23.301m73.229 320.819c8.722 18.63-10.323 21.304-6.241 38.899.407 1.751 11.592 6.679 14.76 8.792a35.3 35.3 0 0 1 8.849 8.427c12.171 16.71 5.183 49.38 5.111 68.898-.032 8.734-1.769 18.234-2.081 27.027 12.514-13.734 23.301-26.095 31.79-42.872 1.552-3.068 4.369-7.915 5.556-10.994 3.381-7.237 15.132-38.013 22.498-39.767 16.176-3.852 39.816 7.931 56.397 11.656 13.693 3.076 43.897 10.949 53.189-4.181.636-1.035 1.705-4.938 1.438-6.129-4.881-1.161-12.863 3.069-19.491 4.043-21.619 3.176-45.583-5.159-57.096-24.57-5.008-8.443-6.755-15.141-10.474-23.581-8.802-1.354-18.923 2.817-25.402-5.023-2.807-3.396-3.789-8.085-3.272-12.404 1.35-10.101 8.026-13.896 15.968-18.262-2.746-8.548-3.596-15.218-3.561-24.237.011-2.676.215-9.211-.294-11.505l-.6-.254c-13.033 9.221-39.575 23.155-54.429 30.077 6.358 9.414 15.22 27.327 2.367 36.843-2.849 2.109-5.984 3.439-9.366 2.33-9.15-2.621-17.062-8.983-25.616-13.213m385.825-353.708c3.904 5.406 4.633 8.299 3.574 15.061 10.445-1.348 17.958-3.847 24.696-12.608 5.58-7.254 8.296-16.283 6.951-25.402a36.56 36.56 0 0 0-14.393-23.895c-5.68-4.145-12.457-6.828-19.543-6.806-9.216 1.437-14.214 4.008-20.948 10.565 1.644 4.273 2.98 7.521 4.947 11.642 9.737-7.351 19.299-8.457 29.55.478.923.804.859 1.805.903 2.915-.859 1.934-2.542 3.24-4.474 3.77-11.153 3.057-14.585 2.387-22.911 11.583 3.135 3.285 9.184 9.241 11.648 12.697m-177.77 358.347c-2.654-3.929-4.884-6.385-8.391-9.657-5.14 4.188-9.58 8.807-14.586 12.981 2.727 8.915 4.678 17.197 10.11 24.843l.766-.029c4.294-10.082 7.06-18.199 12.101-28.138"/><path fill="#b485fe" d="M627.407 439.329c3.23 1.071 14.196 18.776 16.424 22.447 23.611 38.888 44.198 85.068 43.357 131.339-.957 52.602-36.611 97.106-90.6 99.707-6.065.292-12.802-.599-18.954-.832-2.144 1.609-4.367 3.679-5.238 6.224-2.536 7.413-4.132 15.553-6.228 23.232-6.515 23.878-20.157 57.866-38.134 74.818-17.918 16.898-66.14 12.667-90.157 11.552-5.299-.46-9.726-.781-15.074-.906 3.943-3.633 3.464-4.307 3.195-9.5-2.821-3.466-4.285-4.441-7.868-6.876 20.32-5.159 10.808-12.453.961-22.542 4.159-1.112 7.922-1.237 12.041-2.738 1.841-1.937 3.74-4.15 5.531-6.163 3.816-.378 8.808-.258 12.88-.119 13.47.459 37.301-2.64 44.529-15.876 4.256-7.795 5.947-20.897 8.836-29.82 4.543-14.034 9.423-28.165 13.613-42.321-3.629-8.234-6.714-12.867-11.726-20.08 6.025-8.941 13.285-17.961 18.394-27.353 20.902-38.42 23.727-85.524 6.323-125.769-2.434-5.629-5.728-10.296-7.518-16.322 9.56-2.81 21.187-3.413 31.191-5.684 28.382-6.446 50.924-19.71 74.222-36.418"/><path fill="#f0e9fe" d="M548.323 251.696c17.596-2.904 41.263 8.681 50.276 23.944 8.164 13.826 10.783 36.873 2.004 51.121-3.291 5.342-10.584 12.639-11.865 18.209.857 4.339 15.002 9.535 19.16 12.515 11.928 8.549 20.906 26.136 14.844 40.533-4.998 11.867-11.253 22.962-22.096 30.379-32.752 22.075-74.714 31.491-113.551 25.054-27.981-5.657-39.899-26.678-31.706-53.965 1.287-4.289 5.966-9.346 5.651-14.08-.488-7.34-12.355-7.025-17.657-7.626a74 74 0 0 1-9.553-1.679c-6.383-1.602-10.158-3.355-15.1-7.638a44.1 44.1 0 0 1-15.457-30.942c-2.653-38.457 39.506-62.307 73.776-57.601 7.874 1.081 22.777 8.069 27.337.171 10.771-18.654 21.31-25.853 43.937-28.395"/><path fill="#8a38fe" d="M559.094 360.822c4.71.812 7.916 8.152 9.506 12.123 4.618 11.965 7.929 24.63 2.347 36.868-7.575 16.607-19.949 17.91-35.097 10.947q-.93-.477-1.829-1.011c-11.314-6.782-15.32-19.74-18.275-31.699 12.934-14.633 27.803-7.234 43.348-27.228"/><path fill="#b485fe" d="M541.641 398.61a42 42 0 0 1 2.205-.205c7.369-.448 13.015 2.691 18.349 7.284q-.668 1.08-1.361 2.144c-2.514 3.789-4.433 4.256-8.727 5.164-12.697.179-34.586-8.633-10.466-14.387"/><path fill="#8a38fe" d="M467.204 314.537c2.803-.142 5.684-.381 8.467.532 13.37 4.388 22.003 22.806 17.838 36.032-1.357 4.311-4.347 6.476-8.28 8.267a17.2 17.2 0 0 1-7.986.215c-14.101-2.947-21.623-21.482-18.718-34.513 1.24-5.562 4.135-7.867 8.679-10.533"/><path fill="#8a38fe" d="M544.165 290.027c3.376.014 6.911.372 10.195 1.925 11.38 5.384 18.297 25.852 13.443 37.237-1.537 3.604-5.219 5.634-8.874 6.816-12.007-.092-18.653-7.248-22.885-17.667-4.287-10.556-4.331-23.74 8.121-28.311"/><path fill="#8a38fe" d="M507.411 349.923c8.794.029 27.088 11.323 15.812 18.077a92 92 0 0 1-2.283.042c-10.987.052-25.369-7.341-13.529-18.119"/><path fill="#8a38fe" d="M537.836 340.433c6.542.032 7.259 3.323 9.13 8.782-1.97 6.332-3.381 8.469-8.35 12.626-10.185 2.989-9.918-6.398-6.931-12.953 1.789-3.923 3.061-5.544 6.151-8.455"/><path fill="#b485fe" d="M97.344 890.817c-3.66-2.484-3.148-7.772-2.919-11.87 1.454-25.993 7.107-51.831 11.537-77.47a1752 1752 0 0 1 9.008-48.582c1.758-8.97 3.104-17.585 5.787-26.365 8.811-28.838 37.026-24.346 60.651-22.585 16.434 1.225 34.472 1.108 49.666 8.023 2.007.909 3.926 3.227 5.389 4.884 2.463 2.703 4.224 5.654 6.206 8.722l2.628 4.383c-2.361 16.161-6.047 31.805-8.146 47.987-2.184 16.83-3.216 33.838-4.99 50.651-.777 7.366-3.722 17.262-4.799 25.336-1.821 13.651-4.144 34.248-8.895 47.24a31.9 31.9 0 0 1-10.841 14.397c-.862.631-1.265.859-2.203 1.312-7.564 1.602-17.932-24.734-40.541-2.488-10.553-2.59-20.302-4.279-31.239-7.093-1.785-.36-6.286-1.229-7.694-1.943-12.01-6.091-11.768-11.605-25.907-14.994-.976.217-1.706.32-2.698.455"/><path fill="#f0e9fe" d="M97.344 890.817c-3.66-2.484-3.148-7.772-2.919-11.87 1.454-25.993 7.107-51.831 11.537-77.47a1752 1752 0 0 1 9.008-48.582c1.758-8.97 3.104-17.585 5.787-26.365 8.811-28.838 37.026-24.346 60.651-22.585 16.434 1.225 34.472 1.108 49.666 8.023 2.007.909 3.926 3.227 5.389 4.884l-.609.039c-7.032.381-12.627-2.306-19.432-3.324-14.697-2.2-29.414-4.611-44.227-5.777-25.021-2.027-41.664-3.786-49.43 25.116-7.048 26.224-10.787 53.162-15.497 79.868-3.757 21.299-15.706 56.873-9.663 77.594z"/><path fill="#f0e9fe" d="m242.669 725.574 2.628 4.383c-2.361 16.161-6.047 31.805-8.146 47.987-2.184 16.83-3.216 33.838-4.99 50.651-.777 7.366-3.722 17.262-4.799 25.336-1.821 13.651-4.144 34.248-8.895 47.24a31.9 31.9 0 0 1-10.841 14.397c-.862.631-1.265.859-2.203 1.312-1.754-5.797 10.541-19.977 11.803-26.024 6.819-32.698 9.477-66.717 14.139-99.779 2.624-18.604 4.311-36.653 9.739-54.616 1.023-3.385.233-7.688 1.565-10.887"/><path fill="#f0e9fe" d="M100.042 890.362c5.016-7.881 29.69 13.502 34.059 16.092-.144.746.052.493-.458.845-1.785-.36-6.286-1.229-7.694-1.943-12.01-6.091-11.768-11.605-25.907-14.994"/><path fill="#8a38fe" d="m153.558 731.984.049-.839c1.817-1.511 5.373-1.176 7.755-1.135 1.365 1.382 2.924 2.886 4.22 4.305-2.592 3.7-4.294 6.207-8.035 8.912 5.091 1.066 10.307 1.425 13.274 5.853.522 4.085-.407 9.403-.964 13.524-1.461 10.824-3.437 21.379-3.651 32.338-.043 2.18-1.164 4.815-1.015 6.916.586 3.438-1.084 10.125-4.859 10.982-9.065 1.336-14.962-3.986-16.105-12.836-1.451-11.237.131-22.694.634-33.925.569-12.711-2.514-24.71 8.697-34.095"/><path fill="#f0e9fe" d="m153.558 731.984.049-.839c1.817-1.511 5.373-1.176 7.755-1.135 1.365 1.382 2.924 2.886 4.22 4.305-2.592 3.7-4.294 6.207-8.035 8.912.306-6.244 4.888-7.994-3.989-11.243"/><path fill="#f0e9fe" d="M165.191 801.858c.586 3.438-1.084 10.125-4.859 10.982 2.557-4.472 3.318-6.154 4.859-10.982"/><path fill="#f0e9fe" d="M158.434 752.944c6.284.973 4.637 4.73 3.831 10.394-1.747 12.278-1.952 27.811-7.428 38.955-8.624.404-2.567-39.218-1.305-45.337.385-1.867 3.308-3.111 4.902-4.012"/><path fill="#8a38fe" d="M133.341 857.969c14.065-.383 31.618 3.38 45.24 6.972 12.442 3.282 10.578 15.652-.477 20.724-15.643 2.24-41.003-.053-52.743-11.982 1.709-7.131 2.817-10.311 7.98-15.714"/><path fill="#f0e9fe" d="M135.189 866.468c7.037-.078 17.273 3.144 24.551 4.254 5.32.812 10.776 1.477 16.049 2.462 1.848.345 2.408.448 3.202 1.699.072 1.572-.601 2.337-1.413 3.711-8.284 2.014-36.211-1.151-42.412-7.593-.838-1.673-.377-2.665.023-4.533"/><path fill="#b485fe" d="M544.361 206.211c28.601-2.87 66.259 7.529 81.525 33.457 2.501 3.037 4.122 8.912 6.267 11.734 5.96 7.839 5.574 15.083 8.666 23.667 1.936 5.374 8.165 10.026 9.233 15.205 1.072 5.191.208 11.956-.171 17.079 3.541 4.115 10.587 9.787 15.02 14.319-2.056 3.456-7.837 10.082-8.734 12.549-2.614 7.19 11.594 17.342 11.915 25.239.864 3.43-5.553 5.656-6.063 7.514-1.656 6.03-17.414 35.403-23.074 34.713-.84-4.245.238-12.268-.293-16.861-1.464-12.652-6.981-28.044-17.684-35.798-4.71-3.412-9.51-5.375-14.04-9.261 3.315-5.218 8.83-13.544 10.529-19.154 4.93-17.126 2.826-32.813-5.034-48.623-17.901-36.007-60.968-41.018-94.319-24.381-10.722 5.348-18.034 13.758-21.608 25.456a84 84 0 0 0-13.122-4.026c-28.249-6.2-49.536-.01-73.211 15.049a59 59 0 0 0-3.468 2.488c-12.706 9.74-18.007 22.602-20.159 38.041-3.854 27.64 12.743 53.458 38.744 62.79 7.07 2.538 12.364 3.251 19.674 4.069-8.521 19.333-6.086 41.46 8.487 57.379 1.969 2.151 4.156 4.852 5.626 7.355l.337.586c-16.815-.938-29.842-10.183-44.385-18.492-2.92 2.785-6.87 7.488-9.573 10.567-2.878-6.351-3.822-13.804-5.871-20.435-2.183-7.065-4.618-11.748-5.764-19.209-1.246-1.417-2.71-2.755-4.079-4.066-7.467-.744-16.834-3.527-19.874-11.343-6.845-17.601-13.176-36.976-16.319-55.769-1.926-10.299-1.868-46.526 6.375-54.131 39.828-36.746 93.81-59.44 145.597-73.401 10.086-2.719 28.013-3.283 38.85-4.306"/><path fill="#b485fe" d="M808.546 234.718c6.665 3.952 9.324 15.761 17.949 16.379 4.298-1.593 5.023-8.584 8.752-11.877 4.594-.41 2.441 12.3 11.502 18.341l.621.407c2.182.066 4.496.017 6.69.01 3.72-3.078 6.54-6.816 10.628-9.874 1.924 3.987 3.895 12.318 6.233 14.024 8.238 6.011 16.377-4.61 24.797-4.721l.669.699c-.207 5.294-7.306 15.123-9.198 20.529-2.45 7.744-3.547 15.723-6.662 23.288-4.001 9.713-9.595 18.45-14.406 27.78-12.99 25.19-30.439 48.218-49.482 69.119-3.984 4.371-10.003 7.771-14.036 11.986-13.111 13.703-25.701 26.246-41.819 36.423-8.352 5-17.109 9.291-26.178 12.828-7.894 3.085-16.239 5.413-23.179 10.38-2.539 1.816-5.576 3.516-8.422 4.768-5.402-8.542-8.993-18.293-14.182-26.196-5.244-7.986-11.936-12.078-16.833-21.666 6.728-4.622 16.696-8.151 23.852-12.414 9.51-5.664 18.836-13.158 27.266-20.327 22.81-19.561 43.823-43.406 57.264-70.505 8.034-16.196 14.754-35.593 20.522-52.745 3.873-11.521 4.355-24.667 7.652-36.636"/><path fill="#b485fe" d="M467.013 489.596c4.362-.569 7.679 5.149 10.014 8.272 8.74 11.689 16.063 25.558 19.133 39.904a63.8 63.8 0 0 1 1.445 12.214c.179 7.886-1.924 35.228-5.839 41.298l-.652-.047c-3.188-10.199-4.944-32.408-4.057-43.002-2.233-2.193-3.596-2.995-6.355-4.391-8.722.344-18.193 4.934-26.408 8.237a614 614 0 0 0-50.418 22.412c-10.81 5.426-20.986 11.77-32.064 16.556-1.691.731-5.919 2.411-7.36 3.494-14.405 10.828-31.335 19.7-44.136 32.403-1.359 1.094-2.054 1.037-3.561.841-4.252-3.024-2.585-12.502-6.701-17.519-5.748-7.007-18.357.877-25.667-.24-5.659-5.702 8.163-14.449-5.126-21.138-8.684 1.74-14.583 3.84-22.554 7.565 1.802-6.312 1.904-7.499-.182-13.431 4.098-6.748 19.907-16.863 27.112-21.729 21.482-14.509 46.543-30.318 70.671-39.887 22.232-8.818 47.11-13.831 70.178-19.984 14.418-3.846 28-8.213 42.527-11.828"/><path fill="#b485fe" d="M669.648 684.35c6.065.758 32.13 40.222 36.804 46.813 18.918 26.67 26.498 59.79 27.693 92.06.54 14.579.678 27.657 2.665 42.267-5.008-2.808-13.828-11.819-17.945-11.71-4.086 1.663-7.846 12.455-10.707 16.947l-.383.595c-4.69-3.543-9.646-8.253-14.057-12.241-9.192-7.172-12.684 3.454-16.368 10.49-2.025-3.949-4.016-8.608-5.871-12.689-1.77-1.114-4.352-2.425-6.242-3.46l-7.109 2.538c-.272-7.856.566-16.767.809-24.717 1.064-34.83.954-55.434-18.322-86.95-6.517-10.655-14.901-20.318-21.035-30.092l-.347-.561c21.34-7.766 33.393-14.433 50.415-29.29"/><path fill="#f0e9fe" d="M831.483 114.712c13.08 8.821 15.5 60.568 21.797 64.85 1.305.888 2.568 1.073 4.09.644 2.957-.834 5.115-3.233 6.515-5.872 5.331-10.055 4.94-23.682 11.311-34.793 1.936-3.377 4.73-7.297 8.797-8.118 1.507-.304 2.05-.151 3.305.679 4.976 9.499-4.162 44.889-3.236 56.686.317 4.03 2.046 8.908 7.103 8.265.61.068 1.74-.59 2.034-1.152 5.789-11.071 11.213-22.345 18.455-32.585 2.415-3.414 6.857-9.475 11.263-10.387 1.266-.263 2.051.502 2.922 1.211 2.592 5.666-2.907 22.044-4.691 28.474-1.69 5.603-5.27 13.486-7.652 19.081-5.232 12.29-10.224 27.2-20.216 36.46-3.441 3.188-12.359 7.329-16.998 9.956-2.667-25.828-13.676-17.242-27.393-4.808-3.01-9.558-3.639-14.605-12.211-20.542-11.649 2.753-6.919 4.082-13.037 11.289l-.824.018c-1.482-1.478-2.979-4.248-3.62-6.309-8.169-26.252-1.514-60.836 4.401-87.189 1.867-8.32 4.506-18.635 7.885-25.858"/><path fill="#8a38fe" d="M835.478 183.962c13.967.095 21.752 5.253 26.434 18.489-1.414 2.031-2.58 3.391-4.166 5.259-2.505.856-7.429 1.38-10.06.435-4.046-1.454-3.783-5.237-5.364-6.948-5.438-5.887-6.61-4.452-9.717-12.222z"/><path fill="#b485fe" d="M825.86 550.199c23.812-.315 51.091 11.731 65.844 30.589 24.531 31.358 22.124 86.332-2.853 116.767-6.829 8.322-19.184 17.279-27.328 24.79-31.472 24.08-71.5 18.839-107.6 11.621-21.502-4.299-23.787-4.983-36.749-22.321 11.244 4.551 31.139 9.892 43.607 12.078 25.094 4.399 57.782 3.052 81.59-6.309 5.274-2.074 11.892-6.712 16.575-10.019a72.3 72.3 0 0 0 10.562-9.119c29.393-30.227 37.305-84.974 4.842-115.441-13.992-13.132-29.939-18.092-49.021-17.67-10.687.237-21.539 4.565-28.841 12.506-10.681 11.924-13.246 25.838-12.509 41.081 1.059 21.884 8.405 35.732 29.198 43.968 2.931 1.161 9.416 3.047 11.342 4.821l-.01.786c-2.395 1.721-5.518 2.122-8.291 2.587-7.986 1.223-21.833-4.949-27.632-10.295-20.849-19.221-22.033-59.764-8.568-83.066 9.431-16.319 27.956-25.903 45.842-27.354"/><path fill="#f0e9fe" d="M794.555 863.21c1.785-.202 4.909-.184 6.804-.234l-.689.473c-4.402 3.066-6.474 3.962-11.442 5.958-7.968 3.203-27.24 7.204-31.428 15.413.261 16.137 50.844-5.864 57.906 5.576-3.295 5.958-52.846 4.504-49.834 18.369 2.22 10.217 48.858-4.681 52.902 7.371-1.47 3.434-7.208 3.954-10.511 4.907-23.407 6.75-41.544 6.409-65.223 2.587-19.525-1.587-38.793-4.862-58.288-6.658-5.49-.506-23.851 3.792-24.314-4.739-.447-8.232-1.292-34.792 3.026-40.704l.949-.13c2.682 2.588 4.703 10.891 6.62 15.325 11.881 6.93 14.056-5.052 18.046-14.06 7.299 10.023 11.733 17.922 25.578 14.553 4.147-5.914 5.919-11.741 8.321-18.474 11.253 11.179 22.318 22.228 25.195-2.194 15.994-.224 30.507-2.051 46.382-3.339"/><path fill="#f0e9fe" d="M439.532 581.457c.699.508 1.187 1.16 1.339 2.031 2.284 13.139 5.952 25.855 9.073 38.801 1.814 7.524 3.426 15.54 6.692 22.582.986 2.126 5.299 5.369 7.207 6.93l-1.784 6.005c1.28 3.001 2.894 6.247 4.302 9.224l-1.696 9.507c2.672 6.491 3.467 11.8 5.541 18.314 1.789 5.618 6.207 11.9 9.495 16.893-14.345 2.562-38.056 4.309-51.399-1.911-13.521-6.302-16.074-16.371-20.816-29.207 4.341-2.165 7.408-3.205 12.006-4.663 15.803-4.917 21.183-7.73 16.258-25.552-1.537-5.564-1.636-7.814-4.937-13.006-2.518-1.091-4.89-1.684-7.518-2.412-7.825 4.451-19.109 4.229-29.164 6.811-1.303-12.018-3.017-21.579-3.154-33.82 4.636-4.567 9.021-6.748 14.809-9.547.559 3.193 2.275 22.87 12.027 12.563 2.122-2.242.5-13.751.088-17.754 2.027-1.772 3.088-3.411 5.815-2.652 3.068 3.986-1.551 15.027 3.604 18.934 3.172 2.404 6.236-1.33 7.199-4.117 2.286-6.612-.868-12.733-3.687-18.566 3.097-2.603 5.174-3.638 8.7-5.388"/><path fill="#f0e9fe" d="M239.18 598.874c3.329 1.726.812 7.115-.059 10.102 7.537 20.232 18.916-1.388 31.373.014 2.309 1.814-.507 13.086 1.686 17.335 5.851 11.333 27.431-11.013 29.76 3.906 1.31 8.398 25.672 26.964 17.689 33.278-4.014.074-10.572-5.191-15.056-7.318a44.8 44.8 0 0 0-9.39-3.138c-6.697-1.502-15.105-1.831-20.744 2.354-12.38 9.191-12.191 18.182-15.013 30.998-2.208 2.087-3.151 2.57-5.702 4.055-3.916.051-5.088.083-8.912-.656-3.795-5.522-4.324-7.484-4.927-14.142a84 84 0 0 1 1.129-6.668c1.213-5.697 9.099-21.555 4.276-26.134-3.668-.444-5.778 3.056-7.916 5.507-7.89 9.047-5.178 20.815-8.691 30.559-1.86.48-5.14-.109-6.358-1.686-8.523-11.029.768-24.41.498-36.338-.039-1.712-.424-2.458-1.66-3.496-11.359-.535-12.033 24.339-12.18 31.509q-1.05-.276-2.092-.583c-32.372-9.593 6.156-49.387 18.194-61.743 2.404-2.468 10.661-6.086 14.095-7.715"/><path fill="#b485fe" d="M247.675 714.853c6.185.453 10.969 1.867 16.865 3.776 10.914 8.813 11.657 22.618 9.28 35.415-1.354 22.156-4.338 44.108-6.769 66.152-3.359 30.463-3.365 63.001-16.677 91.189a39.8 39.8 0 0 1-7.503 2.954c-3.84 1.085-19.327 4.754-22.563 2.939-.245-1.576.335-2.249 1.316-3.821a57.3 57.3 0 0 0 5.754-12.154c12.907-38.961 14.262-87.965 19.834-128.899a328 328 0 0 1 3.434-20.123c3.837-19.269 6-19.541-2.971-37.428"/><path fill="#f0e9fe" d="M273.82 754.044c-1.519-2.836-1.692-19.897-5.462-25.255-1.261-1.791-4.269-7.555-3.818-10.16 10.914 8.813 11.657 22.618 9.28 35.415"/><path fill="#f0e9fe" d="M384.631 741.024c12.59-.156 23.591 4.08 34.218 10.462-18.98 4.622-26.465 9.399-9.111 24.377-17.032 5.575-14.586 12.559-1.287 20.721-4.305 3.275-6.161 4.295-8.91 9.016.728 15.282-8.674 40.75-16.215 53.858-2.003-10.832.221-19.693.539-30.459.162-5.471-3.66-9.011-9.25-8.438-4.145 2.278-8.556 18.528-10.71 23.264-2.035 4.472-3.293 7.068-5.877 11.501-1.223 1.935-3.499 5.585-5.808 5.951l-.681-.721c-1.505-9.122 8.763-25.873 8.931-35.803.05-2.965-.26-11.609-5.41-10.506-10.234 2.627-11.934 16.432-19.825 23.034-4.391 3.675-18.285 13.148-23.106 7.184-.31-1.042-.493-2.269.016-3.294 5.745-11.567 18.497-21.066 26.807-31.54 9.457-11.322 18.412-23.423 25.276-36.519 6.557-12.511 6.583-24.953 20.403-32.088"/><path fill="#f0e9fe" d="M478.606 94.085c30.885-1.693 35.093 11.43 57.521 26.867-43.464.612-68.356 8.005-107.995 22.94a631 631 0 0 0-57.279 24.35c-6.832 3.479-14.144 7.094-20.805 10.824-4.712 2.638-9.051 5.726-13.935 8.461-4.852-1.739-.99-29.662.619-34.598 7.872-24.147 39.797-12.893 58.278-14.065 10.974-.696 22.471-3.421 32.771-7.162 20.03-7.558 32.96-28.751 50.825-37.617"/><path fill="#b485fe" d="M273.988 717.345c7.052 2.181 22.345 7.461 25.835 14.845 2.823 5.973 3.785 16.903 3.714 23.517-.107 9.799-1.401 20.173-1.852 30.066-.711 15.611-3.368 31.305-4.958 46.851-2.242 19.831-2.445 40.257-8.872 59.328-4.93 14.7-14.993 19.495-29.426 21.338 2.888-5.725 4.866-9.785 6.773-16.04.411-1.35 1.983-7.686 2.221-8.268a569 569 0 0 1 4.342-18.419c2.926-11.499 3.553-22.516 4.647-34.236l3.168-30.79c.858-8.593 2.554-17.239 3.384-25.779 1.311-13.501 2.027-27.728 1.198-41.266-.399-6.525-7.169-15.523-10.174-21.147"/><path fill="#f0e9fe" d="M271.765 870.563c2.001 3.258-1.522 15.891-4.342 18.419a569 569 0 0 1 4.342-18.419"/><path fill="#f0e9fe" d="M536.644 129.081c.476-.011.982.152 1.476.264l-.171.765c-4.753 3.28-19.696 7.859-25.427 9.81-17.289 5.887-33.152 10.665-49.282 19.516-7.916 4.344-19.248 7.374-27.836 11.831-18.244 9.467-36.77 18.528-54.957 28.131-13.744 6.894-27.48 11.829-40.858 19.65-1.676-5.02-2.193-12.098-2.743-17.497 4.324-3.156 12.069-6.84 17.005-9.268a993 993 0 0 1 31.793-14.922c28.724-13.094 62.014-29.512 92.089-38.019 17.559-4.966 40.284-5.41 58.911-10.261"/><path fill="#f0e9fe" d="M479.09 482.021c8.728-.216 18.001.293 26.812.477 11.794 13.479 18.928 42.999 20.626 60.977 4.086 43.255-15.725 68.449-41.393 98.984-3.206 3.796-5.839 6.877-9.349 10.439 3.12-7.5 7.064-13.152 11.328-20.027 23.281-37.539 33.205-89.534 8.82-128.913-4.362-7.043-11.433-14.066-16.357-21.221z"/><path fill="#f0e9fe" d="M333.465 362.631c1.189-.213 1.25-.158 2.469-.031 2.539 1.99 4.705 9.675 6.021 13.197-9.2 4.272-22.004 9.646-20.775 22.973.129 1.396.763 2.15 1.871 2.982 3.648 1.099 6.352-.924 9.046-3.142 5.362-4.415 9.661-7.318 15.919-10.282 3.542 10.966 8.754 23.164 19.222 28.739 1.615.86 6.184 3.452 6.999 4.693l-.77 1.247c-4.684 4.119-9.889 6.324-15.957 7.634a47.14 47.14 0 0 1-35.386-6.557c-15.468-10.124-22.757-31.313-12.226-48.1 5.073-8.086 14.521-11.515 23.567-13.353"/><path fill="#f0e9fe" d="M647.106 425.273c6.363 1.605 7.863 5.842 12.074 9.711 10.44 9.592 16.444 17.681 22.416 30.549 4.016 8.653 8.188 16.156 11.687 25.221a163 163 0 0 1 6.365 20.227c1.602 6.609 6.783 36.521 4.26 42.236l-.683-.193-.475-1.631c-5.476-33.767-21.494-64.762-42.642-91.322-.317-11.645-2.92-8.369-10.09-15.111-2.713-2.55-6.663-8.869-9.467-12.236 2.351-3.578 3.487-4.634 6.555-7.451"/><path fill="#f0e9fe" d="m471.122 567.407.866.187c3.153 3.107 3.432 25.156 4.678 30.909 1.413 6.523 1.356 10.24 4.683 16.557-2.43 4.575-8.055 16.925-13.289 17.693-1.539-.701-1.106-.604-2.155-2.378a163 163 0 0 1-7.657-26.049c-1.906-9.01-3.403-18.965-5.884-27.694 6.834-4.34 11.319-6.102 18.758-9.225"/><path fill="#f0e9fe" d="M94.844 770.615c1.704-.172 2.961-.504 4.493.174.473 2.755-8.689 46.121-10.214 50.21l-4.752-1.525c-1.675-1.096-2.413-3.358-2.895-5.234-4.632-18.046-8.977-36.941 13.368-43.625"/><path fill="#f0e9fe" d="M421.908 650.061c1.702.285.933-.047 2.317 1.184 1.047 2.284.827 4.209.862 6.756a872 872 0 0 1-44.98 12.03c-2.545-1.069-3.079-2.436-2.566-4.994 2.598-3.647 13.503-5.846 17.939-7.133 8.874-2.575 17.637-4.934 26.428-7.843"/><path fill="#f0e9fe" d="m71.43 834.82.767.426c2.764 3.949 5.982 17.107 8.346 22.058 1.374 2.879-6.388 2.802-7.723 2.804-13.982-1.404-10.876-18.117-1.39-25.288"/><path fill="#f0e9fe" d="M190.456 677.672c9.128 4.657 11.699 5.438 21.702 7.484 1.357 2.422 6.237 7.839 4.76 9.931-6.012-.902-23.077-1.819-27.016-5.18-1.397-3.456-.084-8.424.554-12.235"/><path fill="#f0e9fe" d="m92.445 906.737 1.14.532c1.137 2.537-.317 5.979-1.137 8.671 1.199 2.038 4.836 6.921 4.97 8.73l-.886.501c-8.391-4.956-11.346-10.905-4.087-18.434"/><path fill="#f0e9fe" d="M179.26 676.295c4.686 2.796 1.099 12.035-1.007 15.76-5.339-4.847-2.329-10.613 1.007-15.76"/><path fill="#f0e9fe" d="M104.141 910.276c2.827.236 7.312 1.054 9.096 3.403.054 1.639.078 1.082-1.371 2.72-6.821 3.551-9.634 1.58-7.725-6.123"/><path fill="#f0e9fe" d="m181.325 656.287.701.288c1.733 2.081 3.602 7.114 1.998 9.842-.398.678-1.417.49-2.311.577-6.997-2.895-4.065-6.654-.388-10.707"/><path fill="#f0e9fe" d="M188.212 926.477c2.683 0 6.329.446 9.092.706l-4.417 5.449-1.267 1.013c-4.756.958-6.339-3.296-3.408-7.168"/><path fill="#f0e9fe" d="M281.11 669.312c3.495.512 5.365 3.407 3.494 6.75-1.95 1.138-.892.799-3.368.768l-6.77-1.415c2.581-2.893 3.529-3.861 6.644-6.103"/><path fill="#f0e9fe" d="M174.009 926.171c2.314 1.114 6.885 11.506 6.563 14.214-6.744-3.077-8.246-7.239-6.563-14.214"/><path fill="#f0e9fe" d="M275.036 686.594c1.046.489.721.228 1.377 1.18.642 4.734-1.176 12.807-2.746 17.282l-.971-.865c-1.014-4.83 1.136-12.805 2.34-17.597"/><path fill="#f0e9fe" d="M83.138 828.84c2.958.089 3.564-.344 4.91 2.325.098 2.46-.944 4.795-1.756 7.184l-.492.425-.88-.44c-1.8-3.278-1.802-5.862-1.782-9.494"/><path d="M727.611 357.047c.781.473.496.128.773 1.098l-2.255 1.301-1.046-.568.133-.6z"/><path d="M856.642 744.707c1.203-.299 1.317-.222 2.584-.263l-.446.601c-1.398-.06-.723-.176-1.983.639z"/></svg>