<svg xmlns="http://www.w3.org/2000/svg" width="1024" height="1024" viewBox="0 0 1024 1024"><path d="M519.312 142.508c40.984-7.404 76.314 55.528 84.692 87.71 27.156-1.166 90.858 7.518 105.876 32.368 23.364 38.662-51.912 74.926-82.944 78.706-2.888 53.332-14.982 92.056-67.836 110.268 23.76 27.7 59.608 63.942 98.254 65.508 2.522-26.478 2.748-53.226 5.012-79.764 1.168-13.68-1.302-25.04 9.016-35.996 10.802-11.47 39.292-13.42 55.516-13.836 14.756-37.16 15.062-30.314 52.296-29.368 39.316.998 37.062-2.198 50.014 35.352l.858-.002c27.368.172 63.166 1.764 61.434 38.41-.586 12.42-4.71 92.158-7.952 101.114-11.736 32.414-60.9 19.154-90.114 18.482-4.676 18.602-13.484 30.348-31.002 39.05-43.224 21.472-100.998 39.162-149.18 23.724-1.082 29.672 8.298 48.428 1.774 84.696-2.214 12.304-8.384 19.204-11.022 29.556 23.146 20.36 56.026 90.048 54.552 123-22.256 21.222-73.572 8.17-101.17 3.144 28.072-1.836 51.584.954 78.468-15.23-5.75-40.82-19.12-70.4-37.006-106.404-20.16 25.542-59.388 31.354-89.944 32.744 8.188 8.868 14.006 17.534 21.492 26.026 7.06 24.79 24.518 41.572 20.446 73.134-33.968 14.274-77.24 11.062-112.472 3.484-7.002-1.506-34.222-8.42-37.622-13.656-12.164-18.742-22.03-42.012-29.904-62.962-7.46 1.47-14.89 5.13-22.182 7.106-60.526 16.39-122.786-9.324-149.708-67.108-34.284-68.212 19.06-168.486-42.418-196.39-44.514-20.204-17.05-61.728 14.428-51.024 152.878 47.856 12.364 220.522 122.796 255.18 22.472 7.052 42.114.214 62.132-11.044-.934-7.316-1.324-12.738-1.524-19.996-34.624-36.664-80.768-76.566-70.834-134.048 7.044-36.39 55.318-100.132 78.9-126.578 7.14-8.01 19.516-16.666 28.242-22.538-15.206-15.73-22.074-32.546-26.884-53.41-30.536-3.4-63.72-13.95-86.164-35.222-50.012-47.396 40.448-88.56 83.754-88.192 3.316-8.474 3.83-15.234 5.894-23.868 8.99-37.615 29.874-81.392 76.458-75.8 12.45 1.495 20.366 4.806 33.746 3.588 15.146-1.38 26.954-7.796 41.832-9.914m-83.16 718.482c22.59.054 41.236-.698 63.782-3.814 9.306-1.286 22.706-5.066 30.462-5.69-4.006-29.2-14.334-60.488-29.518-85.746-9.888.126-52.21-1.79-58.298-7.682-.796-2.472 15.08-13.396 18.646-17.104 48.03 4.43 128.958 7.006 133.292-57.748 1.892-28.276-4.304-71.768-12.876-98.552-50.434-30.264-94.354-68.978-135.456-110.858-7.652-7.798-14.096-17.096-22.33-24.26-2.86-2.456-12.628-5.412-16.998-8.286-35.29 18.3-85.118 94.054-98.712 131.276-17.842 48.85 48.486 110.38 83.206 136.706 12.792 9.7 22.816 19.402 39.424 10.564 13.816-7.35 21.752-21.836 14.628-37.132-3.568-7.108-16.118-12.75-21.982-18.226-70.242-58.754-69.686-102.806-7.41-164.56 3.572-3.542 12.552-12.152 17.014-13.008l.994.382c.652 1.918.118 3.86-.97 5.57-42.614 67.016-63.67 99.2 5.618 154.14 25.05 19.864 44.052 31.45 26.49 70.856-17.504 28.532-51.362 37.122-78.368 17.268-2.034-1.494-5.87-3.676-8.17-4.896 7.5 37.256 26.728 106.648 57.532 130.8m248.294-347.728c-.82-12.39 1-26.552 1.904-39.182 2.176-30.468-5.31-51.234 24.686-66.262-14.77-1.776-33.398-6.804-35.296 15.026-2.624 30.17-4.82 64.046-5.822 94.224 5.49-1.622 8.832-2.776 14.528-3.806m-76.922-271.76c.676 3.982 1.27 8.006 1.884 12.002 28.3-.522 74.938 5.636 89.844 32.67 20.394-36.47-72.194-44.874-91.728-44.672M763.34 563.426c15.458-15.338 8.02-49.182-14.622-48.172-8.172.364-18.778 7.312-26.516 10.044-44.928 17.58-86.326 23.354-126.074-7.074-3.022-2.314-8.796-7.574-11.746-8.97 5.772 25.78 16.544 53.812 23.142 80.642 52.006 12.662 111.518 4.832 155.816-26.47M571.518 549.14c-3.19-16.348-26.95-86.348-37.908-92.86-24.408 2.986-46.632.592-68.452 2.942 21.954 18.526 45.974 44.484 68.452 60.634 5.87 6.566 29.818 23.99 37.908 29.284m-211.28 220.626c.61-.39 3.154-1.972 3.554-2.342-1.226-5.06-2.462-10.088-3.554-15.182-63.858 34.342-134.006-3.37-136.504-77.86-3.182-53.22 20.678-127.52-37.01-159.272-5.21-2.856-20.389-10.784-26.276-8.918-17.005.842-1.376 13.828 8.687 17.128 78.637 25.8 14.048 143.108 56.607 209.06 30.604 47.424 82.652 58.55 134.496 37.386M748.13 389.012c18.266.464 37.008.846 55.21 2.542 7.082-.184 1.894-7.046 0-11.04-16.874-.152-33.128-2.278-50.444-1.76-2.312 3.922-3.302 5.882-4.766 10.258m-190.744-110.35c-21.684 1.712-33.386 11.252-54.892 13.678-39.994 4.514-63.286-15.34-111.818 8.182-18.858 41.416-2.098 111.038 45.476 128.582 40.492 14.486 142.558 16.704 159.24-37.596 10.78-35.084 13.828-77.422-3.154-110.904-8.804-.826-26.434-2.746-34.852-1.942"/><path d="M502.896 323.618c35.44-3.49 52.948 19.796 14.034 42.194-.918 23.188-5.304 45.064-20.816 63.292-11.81.75-1.548-14.326.068-18.298 5.502-13.514 8.67-30.504 6.714-44.994-37.31-5.522-44.502-36.058 0-42.194m9.38 28.02c15.566-8.564 13.544-15.27-3.372-14.086-24.72 5.896-1.736 15.358 3.372 14.086"/><path d="M433.872 314.628c12.212.548 33.372 17.516 25.302 23.558-5.734.61-15.844-9.74-23.022-12.186-10.054-.572-10.932 12.354-18.438 16.562-8.614 5.402-3.018-24.498 16.158-27.934"/><path d="M571.518 307.082c14.938-1.462 26.958 22.282 21.49 24.77-6.766-.304-11.288-10.398-18.274-13.134-10.632 3.418-10.484 9.768-17.56 15.956-8.864 2.412-2.6-22.116 14.344-27.592"/><path fill="#1447e6" d="M374.856 256.288c47.312-10.856 88.04-24.89 138.54-25.162 27.456-.148 54.316 4.202 81.354 5.854.568 9.248 1.852 14.236 4.098 23.072 2.36-.15 6.202-.018 8.676 0l1.884-6.548c28.3-.522 74.938 5.636 89.844 32.67-11.056 21.454-49.946 36.83-72.316 43.246-1.068-15.618-4.104-38.074-13.684-50.758-9.6-4.778-27.324-6.154-38.342-7.904-80.746-12.83-135.5 6.206-210.012 26.072-3.512 22.506-3.848 35.75-3.516 58.462-24.386-5.004-106.094-31.222-67.496-64.436 16.956-14.592 44.972-25.19 67.496-23.9.666 3.012 1.6 6.24 2.41 9.238 3.712.042 7.352.04 11.064 0-.242-6.412.182-13.208 0-19.906"/><path fill="#1447e6" d="M711.036 407.818c29.066 1.028 58.756 3.638 87.824 5.164l38.06 2.216c14.116.828 33.102-2.638 31.786 17.184-1.662 25.016-3.804 49.938-5.148 74.97-1.518 13.936 1.616 24.536-16.014 23.518-18.674-1.078-37.856-2.746-56.55-2.994-.928-2.666-1.882-5.326-2.724-8.02 72.962-16.354 42.49-110.79-19.526-95.602-30.428 7.452-46.7 41.88-31.714 69.676-18.022 5.046-32.472 14.644-52.584 19.332-.82-12.39 1-26.552 1.904-39.182 2.176-30.468-5.31-51.234 24.686-66.262"/><path fill="#1447e6" d="M516.93 154.682c28.686-4.99 49.988 23.441 62.342 45.013-14.242-.169-30.412-2.676-45.168-2.994-32.308-.698-66.34 1.91-97.952 8.419-17.82 3.53-34.216 8.972-51.6 13.828 10.43-32.33 26.456-63.831 66.562-57.236 23.104 3.799 43.636-4.4 65.816-7.03"/><path fill="#1447e6" d="M780.376 437.358c46.686.08 47.568 66.634 0 68.834-2.764-.158-14.618-12.298-29.036-15.158-12.43-26.194-.36-51.616 29.036-53.676"/><path d="M779.086 447.852c13.064-1.848 25.178 7.178 27.142 20.226s-6.954 25.242-19.984 27.322c-13.196 2.108-25.578-6.95-27.568-20.162-1.988-13.214 7.178-25.516 20.41-27.386"/></svg>