<svg xmlns="http://www.w3.org/2000/svg" xmlns:xlink="http://www.w3.org/1999/xlink" width="551" zoomAndPan="magnify" viewBox="0 0 413.25 413.249985" height="551" preserveAspectRatio="xMidYMid meet" version="1.0"><defs><clipPath id="53d269d241"><path d="M 0 0 L 412.5 0 L 412.5 412.5 L 0 412.5 Z M 0 0 " clip-rule="nonzero"/></clipPath><clipPath id="58f38bc863"><path d="M 0 0 L 412.351562 0 L 412.351562 412.351562 L 0 412.351562 Z M 0 0 " clip-rule="nonzero"/></clipPath><clipPath id="4efd6d6bbb"><path d="M 17.21875 0 L 395.132812 0 C 404.640625 0 412.351562 7.710938 412.351562 17.21875 L 412.351562 395.132812 C 412.351562 404.640625 404.640625 412.351562 395.132812 412.351562 L 17.21875 412.351562 C 7.710938 412.351562 0 404.640625 0 395.132812 L 0 17.21875 C 0 7.710938 7.710938 0 17.21875 0 Z M 17.21875 0 " clip-rule="nonzero"/></clipPath><clipPath id="002c018222"><path d="M 0 0 L 412.351562 0 L 412.351562 412.351562 L 0 412.351562 Z M 0 0 " clip-rule="nonzero"/></clipPath><clipPath id="e3a4bff4d9"><path d="M 17.21875 0 L 395.132812 0 C 404.640625 0 412.351562 7.710938 412.351562 17.21875 L 412.351562 395.132812 C 412.351562 404.640625 404.640625 412.351562 395.132812 412.351562 L 17.21875 412.351562 C 7.710938 412.351562 0 404.640625 0 395.132812 L 0 17.21875 C 0 7.710938 7.710938 0 17.21875 0 Z M 17.21875 0 " clip-rule="nonzero"/></clipPath><clipPath id="812f8bc00d"><rect x="0" width="413" y="0" height="413"/></clipPath></defs><g clip-path="url(#53d269d241)"><path fill="#ffffff" d="M 0 0 L 412.5 0 L 412.5 412.5 L 0 412.5 Z M 0 0 " fill-opacity="1" fill-rule="nonzero"/></g><g clip-path="url(#58f38bc863)"><g clip-path="url(#4efd6d6bbb)"><g transform="matrix(1, 0, 0, 1, 0, 0)"><g clip-path="url(#812f8bc00d)"><g clip-path="url(#002c018222)"><g clip-path="url(#e3a4bff4d9)"><path fill="#ffffff" d="M 0 0 L 412.351562 0 L 412.351562 412.351562 L 0 412.351562 Z M 0 0 " fill-opacity="1" fill-rule="nonzero"/></g></g></g></g></g></g><path fill="#1447e6" d="M 174.734375 33.328125 C 180.640625 32.371094 191.484375 34.007812 197.222656 35.574219 C 200.476562 36.484375 203.609375 37.699219 206.628906 39.214844 C 209.648438 40.730469 212.496094 42.519531 215.167969 44.585938 C 217.839844 46.652344 220.292969 48.953125 222.523438 51.492188 C 224.75 54.027344 226.71875 56.757812 228.421875 59.671875 C 242.414062 54.121094 255.796875 59.839844 261.324219 73.917969 C 267.507812 89.664062 256.050781 106.914062 240.207031 110.324219 C 237.339844 110.9375 234.664062 111.308594 231.726562 111.3125 C 229.796875 119.539062 224.933594 126.847656 220.570312 133.960938 C 232.316406 133.828125 244.132812 132.785156 255.902344 132.90625 C 260.148438 132.949219 265.601562 132.679688 269.742188 133.421875 C 275.203125 134.402344 281 136.375 286.382812 137.867188 C 295.648438 140.363281 304.902344 142.914062 314.140625 145.515625 C 319.308594 147.003906 324.695312 149.023438 329.988281 149.75 C 333.421875 148.222656 342.578125 142.609375 346.207031 140.515625 C 355.628906 135.09375 365.089844 129.742188 374.59375 124.460938 C 379.964844 121.425781 386.359375 117.417969 392.117188 115.605469 C 390.316406 123.742188 387.769531 132.179688 385.503906 140.242188 L 376.203125 173.011719 C 373.695312 181.605469 371.03125 190.15625 368.707031 198.800781 C 374.207031 206.742188 375.589844 214.925781 368.941406 222.566406 C 366.445312 225.433594 363.917969 226.773438 360.632812 228.574219 C 358.949219 232.960938 357.097656 241.039062 355.917969 245.726562 C 352.703125 258.484375 349.691406 271.363281 346.519531 284.136719 C 345.984375 285.722656 345.613281 288.175781 344.246094 289.246094 C 338.800781 293.515625 331.984375 296.554688 325.964844 300.019531 L 288.988281 321.542969 C 276.4375 318.605469 263.277344 313.414062 250.542969 309.742188 C 250.480469 309.945312 251.105469 318.714844 251.195312 319.753906 C 252.226562 332.023438 245.148438 343.058594 237.882812 352.285156 C 235.703125 355.046875 234.15625 357.148438 232.550781 360.269531 C 236.75 362.976562 252.003906 369.929688 251.519531 375.113281 C 250.773438 383.105469 232.832031 378.484375 227.796875 377.3125 C 223.1875 376.242188 218.675781 375.820312 214.246094 374.203125 C 202.949219 369.492188 210.355469 355.574219 212.28125 347.359375 C 213.207031 343.675781 214.140625 339.824219 214.355469 336.011719 C 215.007812 324.441406 209.804688 314.726562 197.542969 313.820312 L 197.613281 314.144531 C 198.664062 319.019531 199.523438 329.71875 198.085938 334.367188 C 194.703125 345.304688 184.554688 356.078125 178.484375 365.570312 C 184.988281 368.867188 194.910156 372.644531 196.675781 380.296875 C 195.644531 384.691406 193.058594 385.847656 188.867188 386.09375 C 186.300781 386.21875 183.730469 386.121094 181.183594 385.808594 C 174.433594 384.941406 159.679688 381.574219 154.445312 377.453125 C 147.878906 372.277344 153.914062 359.441406 155.476562 352.804688 C 157.40625 346.636719 158.542969 333.21875 154.125 327.964844 C 147.75 320.394531 135.097656 311.921875 127.34375 305.109375 C 120.5625 307.25 114.929688 310.804688 107.707031 311.671875 C 93.9375 313.328125 84.089844 309.074219 73.503906 300.953125 L 73.308594 300.789062 C 50.707031 281.640625 50.59375 247.652344 62.980469 222.972656 C 66.445312 216.070312 70.3125 209.472656 73.816406 202.660156 C 84.824219 181.261719 101.4375 147.945312 78.667969 128.226562 C 73.65625 123.886719 65.933594 120.789062 59.234375 121.414062 C 57.25 121.582031 55.300781 121.941406 53.390625 122.5 C 51.476562 123.054688 49.640625 123.792969 47.875 124.714844 C 46.109375 125.640625 44.453125 126.726562 42.90625 127.980469 C 41.359375 129.234375 39.949219 130.625 38.679688 132.160156 C 37.683594 133.367188 36.816406 134.660156 36.078125 136.042969 C 35.34375 137.425781 34.753906 138.863281 34.308594 140.367188 C 33.863281 141.867188 33.570312 143.394531 33.433594 144.957031 C 33.296875 146.515625 33.316406 148.070312 33.492188 149.625 C 34.105469 154.964844 35.957031 159.933594 40.277344 163.34375 C 41.210938 164.082031 42.210938 164.722656 43.273438 165.257812 C 44.335938 165.796875 45.445312 166.222656 46.59375 166.539062 C 47.742188 166.855469 48.910156 167.050781 50.101562 167.128906 C 51.289062 167.210938 52.476562 167.167969 53.65625 167.007812 C 60.4375 166.136719 66.15625 160.484375 65.023438 153.1875 C 63.464844 143.179688 56.085938 147.828125 49.953125 145.074219 C 49.253906 144.761719 48.46875 142.628906 48.4375 141.839844 C 47.90625 137.648438 51.140625 135.085938 55.019531 134.773438 C 56.304688 134.679688 57.585938 134.710938 58.867188 134.871094 C 60.148438 135.03125 61.398438 135.3125 62.621094 135.71875 C 63.847656 136.125 65.019531 136.644531 66.140625 137.28125 C 67.261719 137.917969 68.308594 138.65625 69.285156 139.5 C 77.894531 146.984375 78.859375 160.5625 71.128906 169.15625 C 60.609375 180.84375 41.722656 181.21875 30.984375 169.5 C 18.570312 155.960938 20.328125 136.03125 32.445312 122.90625 C 34.171875 121.03125 36.070312 119.347656 38.132812 117.851562 C 40.199219 116.355469 42.390625 115.078125 44.710938 114.019531 C 47.03125 112.964844 49.429688 112.144531 51.914062 111.570312 C 54.398438 110.992188 56.914062 110.667969 59.460938 110.59375 C 62.050781 110.476562 64.625 110.617188 67.1875 111.011719 C 69.75 111.410156 72.246094 112.054688 74.679688 112.945312 C 77.113281 113.839844 79.433594 114.960938 81.644531 116.316406 C 83.855469 117.667969 85.910156 119.226562 87.808594 120.988281 C 97.199219 129.835938 101.613281 143.667969 101.632812 156.339844 C 101.640625 162.644531 100.332031 168.296875 98.566406 174.328125 C 96.316406 181.960938 93.429688 189.34375 89.910156 196.480469 C 80.027344 216.359375 65.871094 235.503906 66.726562 258.859375 C 67.019531 271.488281 70.371094 282.078125 79.835938 290.925781 C 88.453125 298.980469 98.707031 301.878906 110.285156 298.730469 C 112.949219 298.003906 114.351562 297.308594 116.226562 295.292969 C 112.632812 285.808594 108.414062 280.105469 105.648438 269.570312 C 97.53125 238.597656 103.996094 201.496094 115.382812 172.230469 C 116.988281 168.105469 120.351562 161.789062 122.585938 157.914062 C 128.046875 148.441406 134.8125 143.40625 140.332031 133.734375 C 138.78125 131.089844 134.597656 125.277344 133.65625 123.203125 C 129.628906 124.6875 122.355469 124.648438 118.050781 124.128906 C 110.644531 123.234375 104.371094 119.507812 99.839844 113.597656 C 98.6875 112.089844 97.695312 110.480469 96.859375 108.777344 C 96.023438 107.070312 95.363281 105.300781 94.878906 103.464844 C 94.390625 101.628906 94.089844 99.761719 93.972656 97.867188 C 93.855469 95.972656 93.921875 94.082031 94.179688 92.199219 C 94.410156 90.433594 94.816406 88.707031 95.398438 87.019531 C 95.980469 85.332031 96.726562 83.722656 97.632812 82.183594 C 98.539062 80.648438 99.589844 79.21875 100.785156 77.894531 C 101.980469 76.570312 103.296875 75.378906 104.730469 74.320312 C 110.808594 69.785156 116.308594 69.441406 123.496094 70.503906 C 132.734375 47.636719 150.933594 36.316406 174.734375 33.328125 M 184.503906 69.121094 C 177.113281 63.914062 170.507812 59.644531 160.980469 61.324219 C 154.507812 62.460938 147.507812 66.542969 143.828125 71.828125 C 136.222656 82.746094 139.234375 97.355469 149.539062 105.320312 C 150.730469 106.242188 152.265625 107.75 153.058594 109.054688 C 153.742188 110.28125 153.492188 112.488281 153.472656 113.890625 C 153.328125 124.304688 154.1875 129.328125 162.910156 135.578125 C 170.324219 140.304688 175.984375 141.441406 184.730469 141.410156 C 186.753906 141.402344 190.550781 141.316406 192.441406 141.550781 C 193.0625 137.550781 193.441406 133.71875 197.976562 133.785156 C 205.035156 133.886719 211.894531 134.976562 216.058594 128 C 222.519531 118.660156 220.578125 110.542969 218.121094 100.289062 C 218.953125 97.816406 221.261719 94.960938 222.582031 92.578125 C 226.328125 85.824219 226.613281 76.957031 223.433594 69.949219 C 222.871094 68.707031 222.195312 67.53125 221.402344 66.421875 C 220.609375 65.3125 219.71875 64.289062 218.726562 63.355469 C 217.734375 62.421875 216.660156 61.589844 215.507812 60.867188 C 214.351562 60.140625 213.136719 59.535156 211.863281 59.050781 C 208.535156 57.804688 206.082031 57.660156 202.609375 57.84375 C 194.46875 59.421875 189.492188 62.167969 184.503906 69.121094 M 257.792969 251.296875 C 252.003906 249.398438 246.199219 247.542969 240.378906 245.730469 C 237.792969 256.816406 234.507812 267.976562 231.453125 278.960938 C 230.316406 283.054688 228.90625 289.484375 227.644531 293.183594 C 235.53125 296.605469 248.144531 300.09375 256.921875 303.027344 L 275.40625 308.726562 C 278.214844 309.570312 283.390625 310.929688 285.964844 311.949219 C 290.578125 289.019531 296.066406 266.304688 302.429688 243.800781 C 304.179688 237.523438 305.957031 229.652344 307.890625 223.707031 C 301.597656 223.335938 294.347656 221.738281 288.011719 221.09375 C 286.019531 220.890625 283.609375 220.417969 281.644531 220.371094 C 279.46875 224.011719 274.355469 230.191406 271.609375 233.730469 C 267.328125 239.246094 262.449219 246.300781 257.792969 251.296875 M 274.789062 204.105469 C 276.960938 206.855469 279.550781 211.738281 281.339844 214.929688 C 286.421875 215.757812 291.160156 216.503906 296.261719 217.140625 C 298.671875 217.441406 303.84375 217.910156 305.984375 218.378906 C 307.148438 218.519531 308.304688 218.648438 309.460938 218.835938 C 310.191406 213.933594 313.601562 202.550781 314.984375 197.527344 L 326.070312 157.660156 C 322.835938 157 318.621094 155.703125 315.445312 154.6875 C 308.695312 152.535156 301.40625 151.15625 294.710938 149.09375 C 294.109375 152.589844 292.390625 156.691406 291.125 160.074219 L 285.824219 174.296875 C 282.636719 182.984375 278.507812 195.996094 274.789062 204.105469 M 206.765625 207.105469 C 211.292969 215.054688 209.824219 219.492188 204.746094 226.871094 C 207.175781 231.566406 209.480469 236.496094 211.773438 241.277344 C 212.953125 243.65625 214.445312 246.5 215.503906 248.914062 C 221.332031 246.058594 230.171875 242.527344 236.242188 240.59375 C 237.9375 234.738281 251.394531 186.648438 251.09375 185.558594 C 250.535156 185.460938 250.738281 185.421875 250.246094 185.585938 C 244.878906 185.699219 239.210938 185.988281 233.949219 186.433594 C 231.28125 186.65625 222.800781 186.296875 221.417969 188.066406 C 216.9375 193.800781 210.507812 201.027344 206.765625 207.105469 M 208.554688 142.613281 C 210.175781 146.335938 211.777344 150.789062 213.136719 154.632812 C 216.296875 163.59375 220.507812 172.992188 223.191406 182.027344 C 225.957031 181.527344 235.054688 181.320312 238.710938 181.046875 C 243.0625 180.761719 248.480469 180.421875 252.816406 180.507812 C 253.375 177.945312 254.230469 175.234375 254.964844 172.703125 C 257.917969 162.523438 260.050781 151.804688 263.421875 141.765625 C 260.457031 142.101562 256.117188 141.789062 253.027344 141.8125 C 246.054688 141.863281 238.890625 141.636719 231.933594 141.960938 C 224.960938 142.070312 215.402344 142.066406 208.554688 142.613281 M 313.296875 223.851562 C 306.433594 251.078125 295.925781 282.46875 291.804688 309.851562 C 295.410156 308.0625 298.035156 306.582031 301.464844 304.480469 C 302.851562 303.703125 305.683594 302.269531 306.464844 301.035156 C 310.367188 294.878906 313.609375 287.550781 316.832031 281.046875 C 320.492188 273.746094 324.085938 266.414062 327.609375 259.046875 C 329.253906 255.625 331.46875 251.277344 332.851562 247.800781 C 330.203125 242.410156 327.457031 237.070312 324.617188 231.777344 C 323.339844 229.355469 320.855469 224.398438 319.292969 222.464844 C 318.867188 222.375 318.871094 222.320312 318.472656 222.378906 C 316.386719 223.117188 315.484375 223.390625 313.296875 223.851562 M 338.542969 248.457031 C 336.480469 251.726562 334.714844 256.527344 332.960938 260.160156 L 321.136719 284.0625 C 320.433594 285.472656 315.769531 294.382812 315.671875 295.410156 C 316.082031 295.578125 315.898438 295.585938 316.214844 295.503906 C 321.761719 292.605469 327.117188 289.339844 332.804688 286.671875 C 334.324219 285.960938 336.179688 285.054688 337.566406 284.15625 C 338.925781 278.09375 340.371094 272.050781 341.902344 266.027344 C 343.71875 259.046875 345.859375 251.683594 347.488281 244.710938 L 347.222656 244.492188 L 347.019531 244.527344 C 344.324219 245.773438 341.160156 247.136719 338.542969 248.457031 M 377.792969 132.667969 C 373.488281 134.582031 368.371094 137.242188 364.425781 139.835938 C 362.558594 144.753906 360.828125 152.976562 359.542969 158.300781 C 357.421875 167.042969 355.230469 175.769531 352.976562 184.476562 C 352.144531 187.816406 351.273438 191.152344 350.359375 194.472656 C 349.507812 197.5 347.101562 204.765625 347.136719 207.40625 C 347.476562 207.867188 347.25 207.742188 347.753906 207.890625 C 350.5 206.175781 350.953125 202.949219 352.863281 200.550781 C 354.796875 198.125 357.777344 197.421875 360.632812 196.703125 C 361.25 191.734375 364.40625 182.273438 365.929688 177.078125 L 374.984375 145.3125 C 375.664062 142.875 378.152344 134.816406 378.230469 132.90625 C 378.101562 132.828125 377.921875 132.695312 377.792969 132.667969 M 123.597656 91.601562 C 123.429688 88.414062 123.25 84.238281 123.445312 81.105469 C 121.929688 81.011719 119.300781 80.757812 117.898438 80.871094 C 116.65625 81.164062 115.53125 81.445312 114.316406 81.839844 C 106.65625 84.347656 103.152344 92.496094 104.992188 100.070312 C 105.566406 102.429688 106.570312 104.59375 108.003906 106.554688 C 109.4375 108.519531 111.191406 110.132812 113.265625 111.398438 C 117.699219 114.042969 124 114.757812 128.929688 113.191406 C 127.296875 108.230469 124.945312 98.890625 120.125 96.460938 C 116.34375 94.554688 113.792969 97.667969 111.785156 96.328125 C 111.652344 94.789062 112.347656 93.328125 113.308594 92.164062 C 115.648438 89.335938 120.699219 90.648438 123.597656 91.601562 M 211.050781 250.890625 C 207.402344 244.816406 203.617188 236.746094 200.699219 230.269531 C 197.066406 231.242188 196.035156 232.476562 191.585938 232.785156 C 186.640625 233.125 182.175781 233.167969 177.210938 232.640625 C 162.441406 231.789062 146.960938 229.5 133.894531 222.15625 C 131.324219 220.710938 131.339844 220.378906 129.34375 218.738281 C 127.332031 217.085938 122.882812 210.726562 121.230469 210.378906 C 122.429688 216.601562 124.328125 219.25 129.109375 223.425781 C 141.113281 233.914062 156.636719 236.652344 172.015625 237.894531 C 173.097656 237.984375 174.019531 238.066406 175.121094 238.03125 C 173.691406 246.8125 171.15625 255.550781 168.953125 264.160156 C 168.417969 266.242188 167.867188 268.484375 167.234375 270.53125 C 175.695312 266.4375 185.742188 262.539062 193.871094 258.359375 C 199.566406 255.800781 205.246094 253.199219 211.050781 250.890625 M 336.710938 243.597656 C 341.238281 240.886719 344.761719 239.46875 349.46875 237.28125 C 350.21875 233.34375 351.367188 228.078125 352.652344 224.253906 C 350.671875 221.253906 349.101562 218.542969 348.839844 214.867188 C 348.789062 214.097656 348.933594 213.429688 348.144531 213.238281 C 340.058594 215.992188 332.484375 218.675781 324.148438 220.652344 C 327.019531 225.277344 331.246094 233.402344 333.835938 238.359375 C 334.792969 240.097656 335.777344 241.847656 336.710938 243.597656 M 211.878906 283.117188 C 213.171875 285.59375 216.011719 290.722656 216.867188 293.15625 C 218.980469 292.824219 220.199219 292.832031 222.308594 292.816406 C 222.925781 289.40625 224.511719 284.066406 225.445312 280.597656 C 227.347656 273.433594 229.308594 266.289062 231.332031 259.160156 C 231.898438 257.183594 234.609375 248.34375 234.652344 246.878906 C 234.53125 246.839844 234.285156 246.742188 234.175781 246.746094 C 227.042969 249.546875 219.988281 252.53125 213.011719 255.699219 C 209.964844 257.046875 203.15625 260.183594 200.238281 260.941406 C 203.605469 266.941406 209.140625 276.933594 211.878906 283.117188 M 143.734375 178.941406 C 143.140625 183.671875 145.414062 189.238281 148.347656 192.898438 C 153.710938 199.589844 162.5625 204.777344 171.082031 205.78125 C 172.144531 205.90625 173.242188 205.96875 174.304688 206.070312 C 174.34375 204.203125 174.484375 202.757812 174.679688 200.914062 C 163.320312 198.355469 155.484375 195.417969 148.359375 185.03125 C 147.160156 183.285156 145.757812 179.738281 143.734375 178.941406 M 217.949219 183.144531 L 208.03125 155.464844 C 206.621094 151.589844 205.070312 147.109375 203.316406 143.351562 C 202.9375 142.542969 202.5625 142.503906 201.804688 142.148438 C 199.96875 144.265625 198.839844 149.84375 198.101562 152.6875 C 196.796875 157.636719 195.550781 162.605469 194.367188 167.585938 C 191.921875 177.71875 189.21875 187.824219 186.828125 197.980469 C 186.191406 200.675781 185.828125 203.347656 185.238281 205.957031 C 189.765625 205.128906 196.464844 204.585938 201.085938 204.722656 L 202.027344 204.457031 C 205.527344 199.308594 215.003906 187.839844 217.949219 183.144531 M 332.175781 157.738281 C 328.894531 169.90625 325.488281 182.035156 321.957031 194.128906 C 321.152344 196.894531 314.976562 216.601562 315.460938 217.628906 C 320.058594 216.335938 324.628906 214.964844 329.179688 213.515625 C 333.3125 212.171875 337.101562 210.734375 341.335938 209.675781 C 341.765625 205.1875 344.960938 194.058594 346.230469 189.195312 L 355.046875 155.160156 C 355.503906 153.4375 358.234375 144.308594 357.785156 143.316406 C 352.964844 146.1875 348.078125 148.933594 343.117188 151.550781 C 340.679688 152.855469 334.105469 156.246094 332.175781 157.738281 M 235.78125 68.195312 C 235.230469 68.351562 234.441406 68.4375 234.289062 68.902344 C 233.417969 71.542969 235.179688 76.273438 235.433594 78.964844 C 237.816406 78.152344 240.78125 77.214844 243.230469 78.476562 C 243.742188 78.746094 244.179688 79.109375 244.539062 79.566406 C 244.898438 80.019531 245.144531 80.53125 245.285156 81.09375 C 245.484375 81.859375 245.457031 81.6875 245.101562 82.261719 C 243.292969 83.234375 238.1875 79.8125 235.917969 87.578125 C 235.082031 90.421875 234.578125 98.09375 234.492188 101.183594 C 236.015625 101.164062 236.996094 101.199219 238.472656 100.847656 C 243.648438 99.289062 247.363281 96.855469 250.007812 91.984375 C 251.1875 89.84375 251.90625 87.554688 252.167969 85.125 C 252.425781 82.691406 252.207031 80.304688 251.507812 77.960938 C 249.121094 70.171875 243.289062 67.972656 235.78125 68.195312 M 165.984375 276.019531 C 164.066406 282.761719 162.277344 291.835938 160.28125 298.015625 C 164.472656 297.332031 170.5 296.863281 174.742188 296.582031 C 186.652344 295.976562 199.621094 294.621094 211.703125 293.769531 L 196.023438 263.429688 L 195.636719 263.335938 C 190.195312 265.871094 184.3125 268.269531 178.792969 270.699219 C 175.121094 272.316406 169.703125 274.828125 165.984375 276.019531 M 254.070312 196.425781 C 252.21875 205.269531 248.601562 215.660156 246.269531 224.558594 C 245.25 228.445312 243.195312 237.171875 241.886719 240.464844 C 246.804688 242.066406 251.660156 243.917969 256.621094 245.492188 C 257.792969 243.800781 258.984375 242.023438 260.21875 240.386719 C 265.144531 233.585938 271.777344 224.765625 277.097656 218.265625 C 275.648438 215.949219 273.289062 211.941406 271.605469 210.035156 C 267.140625 204.976562 259.746094 200.34375 254.070312 196.425781 M 268.417969 141.921875 C 268.039062 145.84375 264.039062 160.3125 262.757812 164.679688 C 260.46875 172.480469 258.011719 183.917969 255.402344 191.285156 C 257.171875 192.148438 269.527344 200.429688 270.828125 201.707031 C 271.117188 199.808594 271.621094 197.964844 272.335938 196.179688 C 273.007812 193.222656 275.824219 186.34375 276.996094 183.066406 C 279.558594 175.828125 282.15625 168.609375 284.796875 161.402344 C 286.488281 156.878906 288.410156 152.246094 290.039062 147.742188 C 283.988281 146.296875 277.980469 144.417969 271.949219 142.875 C 270.800781 142.578125 269.539062 142.28125 268.417969 141.921875 " fill-opacity="1" fill-rule="nonzero"/><path fill="#1447e6" d="M 204.019531 115.339844 C 214.355469 118.726562 189.832031 134.59375 172.195312 122.125 C 168.71875 119.816406 170.054688 113.257812 176.679688 118.433594 C 181.484375 122.1875 192.558594 122.292969 197.71875 119.210938 C 199.496094 118.148438 202.011719 116.054688 204.019531 115.339844 " fill-opacity="1" fill-rule="nonzero"/><path fill="#1447e6" d="M 162.992188 82.828125 C 163.800781 82.777344 164.613281 82.878906 165.386719 83.121094 C 167.039062 83.644531 168.335938 84.804688 169.125 86.339844 C 169.5625 87.195312 169.816406 88.097656 169.890625 89.054688 C 169.964844 90.011719 169.847656 90.941406 169.546875 91.851562 C 168.851562 93.910156 167.695312 94.796875 165.890625 95.714844 C 165.304688 95.726562 164.210938 95.640625 163.632812 95.5 C 162.863281 95.316406 162.152344 94.992188 161.507812 94.527344 C 160.863281 94.066406 160.328125 93.5 159.902344 92.828125 C 157.582031 89.089844 159.4375 84.875 162.992188 82.828125 " fill-opacity="1" fill-rule="nonzero"/><path fill="#1447e6" d="M 186.875 97.273438 C 189.859375 97.007812 193.273438 97.175781 195.691406 99.183594 C 196.769531 100.078125 197.871094 101.835938 196.628906 103.058594 C 195.113281 104.546875 192.226562 104.210938 190.246094 104.179688 C 188.320312 104.21875 180.324219 105.484375 179.589844 103.15625 C 178.589844 99.972656 184.195312 97.652344 186.875 97.273438 " fill-opacity="1" fill-rule="nonzero"/><path fill="#1447e6" d="M 204.394531 79.546875 C 208.402344 80.042969 209.730469 82.496094 210.585938 86.003906 C 210.511719 86.371094 210.425781 86.734375 210.332031 87.097656 C 209.667969 89.613281 208.703125 90.683594 206.5 91.976562 C 204.183594 91.863281 202.285156 91.035156 201.105469 88.921875 C 200.664062 88.128906 200.398438 87.28125 200.304688 86.378906 C 200.210938 85.476562 200.300781 84.589844 200.566406 83.722656 C 201.25 81.5625 202.503906 80.535156 204.394531 79.546875 " fill-opacity="1" fill-rule="nonzero"/><path fill="#1447e6" d="M 278.445312 244.269531 C 280.835938 244.195312 282.882812 244.316406 284.988281 245.613281 C 285.984375 246.238281 286.820312 247.023438 287.507812 247.976562 C 288.191406 248.929688 288.671875 249.976562 288.945312 251.113281 C 290.5 257.71875 284.492188 266.085938 281.082031 271.625 C 280.707031 272.171875 280.949219 271.984375 280.324219 272.203125 C 278.007812 270.453125 272.246094 259.292969 271.527344 256.359375 C 269.964844 249.988281 272.039062 245.867188 278.445312 244.269531 M 281.273438 257.511719 C 281.527344 257.433594 281.769531 257.332031 282.003906 257.203125 C 282.238281 257.078125 282.457031 256.929688 282.664062 256.757812 C 282.867188 256.589844 283.054688 256.402344 283.222656 256.195312 C 283.390625 255.988281 283.535156 255.765625 283.660156 255.53125 C 283.78125 255.296875 283.882812 255.050781 283.957031 254.796875 C 284.035156 254.539062 284.082031 254.28125 284.109375 254.015625 C 284.132812 253.75 284.132812 253.484375 284.101562 253.222656 C 284.074219 252.957031 284.023438 252.699219 283.945312 252.441406 C 283.863281 252.1875 283.761719 251.945312 283.632812 251.710938 C 283.507812 251.476562 283.359375 251.257812 283.1875 251.054688 C 283.019531 250.847656 282.832031 250.664062 282.625 250.496094 C 282.417969 250.328125 282.195312 250.183594 281.960938 250.058594 C 281.722656 249.933594 281.480469 249.835938 281.222656 249.761719 C 280.96875 249.683594 280.707031 249.636719 280.445312 249.609375 C 280.179688 249.585938 279.914062 249.589844 279.648438 249.617188 C 279.382812 249.644531 279.125 249.699219 278.871094 249.777344 C 278.617188 249.855469 278.375 249.960938 278.140625 250.085938 C 277.90625 250.214844 277.6875 250.363281 277.484375 250.53125 C 277.28125 250.703125 277.09375 250.890625 276.925781 251.097656 C 276.761719 251.304688 276.613281 251.523438 276.492188 251.757812 C 276.367188 251.996094 276.269531 252.238281 276.191406 252.496094 C 276.117188 252.75 276.066406 253.007812 276.042969 253.273438 C 276.019531 253.539062 276.019531 253.804688 276.046875 254.066406 C 276.074219 254.332031 276.128906 254.589844 276.207031 254.84375 C 276.285156 255.097656 276.390625 255.34375 276.515625 255.574219 C 276.644531 255.808594 276.792969 256.027344 276.960938 256.230469 C 277.128906 256.4375 277.320312 256.621094 277.527344 256.789062 C 277.730469 256.957031 277.953125 257.101562 278.1875 257.226562 C 278.421875 257.351562 278.667969 257.449219 278.921875 257.527344 C 279.175781 257.601562 279.4375 257.652344 279.703125 257.675781 C 279.964844 257.699219 280.230469 257.699219 280.496094 257.671875 C 280.757812 257.644531 281.019531 257.589844 281.273438 257.511719 " fill-opacity="1" fill-rule="nonzero"/></svg>