<svg xmlns="http://www.w3.org/2000/svg" width="388" height="388" viewBox="0 0 388 388"><path fill="#1447e6" d="M162.43 19.85c5.956-.965 16.89.685 22.675 2.263a52.98 52.98 0 0 1 31.459 24.3c14.107-5.598 27.604.168 33.176 14.362 6.234 15.878-5.319 33.273-21.292 36.708-2.89.622-5.59.994-8.55.997-1.949 8.296-6.85 15.666-11.252 22.839 11.846-.136 23.759-1.186 35.626-1.065 4.282.044 9.781-.226 13.956.522 5.508.988 11.35 2.975 16.778 4.479a2513 2513 0 0 1 27.988 7.715c5.212 1.501 10.643 3.534 15.979 4.27 3.464-1.541 12.696-7.2 16.354-9.311a2205 2205 0 0 1 28.625-16.191c5.414-3.06 11.862-7.101 17.668-8.927-1.816 8.202-4.383 16.712-6.67 24.842l-9.377 33.042c-2.527 8.664-5.215 17.285-7.557 26.001 5.547 8.008 6.938 16.261.235 23.964-2.516 2.892-5.063 4.242-8.377 6.058-1.697 4.423-3.564 12.567-4.755 17.293-3.24 12.865-6.279 25.852-9.475 38.73-.54 1.599-.915 4.074-2.293 5.153-5.492 4.304-12.365 7.37-18.432 10.862l-37.286 21.705c-12.654-2.964-25.924-8.2-38.762-11.899-.066.205.567 9.045.655 10.093 1.041 12.37-6.097 23.499-13.424 32.802-2.194 2.786-3.754 4.903-5.376 8.05 4.235 2.73 19.617 9.74 19.129 14.967-.752 8.061-18.843 3.399-23.92 2.219-4.647-1.081-9.198-1.506-13.663-3.136-11.393-4.749-3.925-18.783-1.981-27.066.932-3.716 1.872-7.597 2.089-11.441.659-11.67-4.589-21.462-16.951-22.376l.072.326c1.06 4.913 1.926 15.702.475 20.392-3.411 11.027-13.643 21.889-19.765 31.462 6.559 3.321 16.562 7.13 18.342 14.849-1.037 4.431-3.644 5.596-7.873 5.842-2.586.126-5.178.03-7.747-.286-6.805-.876-21.684-4.27-26.96-8.426-6.623-5.218-.536-18.16 1.038-24.853 1.947-6.217 3.095-19.747-1.363-25.045-6.425-7.635-19.182-16.177-27.003-23.044-6.836 2.155-12.518 5.742-19.798 6.617-13.885 1.67-23.816-2.622-34.487-10.809l-.199-.168c-22.787-19.304-22.903-53.575-10.412-78.463 3.492-6.957 7.392-13.611 10.926-20.481 11.098-21.575 27.849-55.169 4.89-75.05-5.052-4.375-12.84-7.499-19.594-6.87a30.2 30.2 0 0 0-20.727 10.836 23.48 23.48 0 0 0-5.228 17.611c.615 5.381 2.482 10.394 6.84 13.83a17.87 17.87 0 0 0 13.49 3.697c6.838-.878 12.603-6.58 11.46-13.935-1.57-10.092-9.011-5.404-15.192-8.182-.705-.317-1.497-2.467-1.532-3.26-.533-4.229 2.727-6.811 6.638-7.128a19.83 19.83 0 0 1 14.386 4.767c8.681 7.547 9.654 21.236 1.856 29.903-10.604 11.786-29.649 12.161-40.478.346C4.97 143.5 6.739 123.404 18.96 110.173A38.55 38.55 0 0 1 46.2 97.756a39.44 39.44 0 0 1 28.583 10.483c9.468 8.919 13.92 22.866 13.938 35.645.009 6.356-1.31 12.057-3.092 18.137a140 140 0 0 1-8.726 22.338c-9.968 20.041-24.239 39.348-23.38 62.894.297 12.737 3.677 23.415 13.22 32.333 8.691 8.122 19.03 11.045 30.704 7.87 2.685-.731 4.099-1.432 5.988-3.464-3.621-9.566-7.877-15.313-10.663-25.939-8.188-31.23-1.669-68.637 9.813-98.146 1.619-4.16 5.011-10.53 7.262-14.436 5.507-9.552 12.328-14.629 17.895-24.383-1.565-2.663-5.782-8.524-6.731-10.618-4.061 1.498-11.393 1.46-15.734.936-7.469-.902-13.794-4.662-18.362-10.62a29.1 29.1 0 0 1-5.71-21.575 26.73 26.73 0 0 1 10.64-18.028c6.13-4.576 11.676-4.922 18.92-3.85 9.317-23.056 27.667-34.472 51.665-37.483m9.852 36.09c-7.454-5.25-14.112-9.555-23.721-7.863-6.525 1.148-13.585 5.264-17.294 10.59-7.667 11.01-4.63 25.741 5.76 33.774 1.2.928 2.748 2.45 3.549 3.763.686 1.237.435 3.464.416 4.876-.146 10.501.721 15.568 9.516 21.87 7.477 4.765 13.182 5.909 22.001 5.879 2.039-.007 5.869-.096 7.775.143.626-4.034 1.009-7.9 5.583-7.833 7.118.105 14.034 1.205 18.233-5.83 6.513-9.42 4.557-17.603 2.079-27.942.837-2.493 3.165-5.375 4.496-7.774 3.78-6.812 4.065-15.752.858-22.818a21.03 21.03 0 0 0-11.665-10.99c-3.355-1.258-5.829-1.403-9.331-1.217-8.207 1.593-13.225 4.36-18.255 11.371m73.898 183.69a1214 1214 0 0 0-17.559-5.611c-2.608 11.175-5.92 22.431-9 33.504-1.148 4.13-2.568 10.613-3.842 14.342 7.953 3.45 20.673 6.968 29.522 9.927l18.64 5.744c2.83.852 8.049 2.223 10.644 3.252a917 917 0 0 1 16.602-68.718c1.764-6.329 3.556-14.264 5.505-20.258-6.342-.375-13.656-1.986-20.042-2.637-2.011-.205-4.441-.679-6.419-.729-2.194 3.672-7.353 9.905-10.121 13.472-4.318 5.563-9.237 12.674-13.93 17.712m17.138-47.585c2.19 2.774 4.802 7.696 6.603 10.916 5.126.836 9.902 1.587 15.048 2.229 2.431.303 7.644.777 9.804 1.25 1.171.14 2.339.271 3.504.459.738-4.942 4.173-16.42 5.571-21.487l11.175-40.196c-3.26-.667-7.509-1.973-10.714-2.997-6.803-2.173-14.152-3.561-20.904-5.642-.608 3.524-2.342 7.66-3.617 11.071l-5.344 14.342c-3.213 8.76-7.379 21.88-11.126 30.055m-68.59 3.028c4.564 8.013 3.083 12.489-2.035 19.927 2.448 4.735 4.772 9.708 7.083 14.526 1.19 2.399 2.697 5.267 3.764 7.703 5.875-2.88 14.787-6.44 20.909-8.39 1.708-5.906 15.277-54.393 14.974-55.495-.561-.095-.356-.135-.853.03-5.411.114-11.128.405-16.432.852-2.691.227-11.241-.137-12.637 1.65-4.518 5.782-10.999 13.066-14.773 19.197m1.803-65.03c1.634 3.753 3.251 8.243 4.62 12.121 3.188 9.033 7.434 18.509 10.14 27.622 2.787-.505 11.96-.714 15.648-.991 4.389-.286 9.849-.627 14.224-.544.561-2.581 1.425-5.315 2.165-7.868 2.977-10.265 5.126-21.072 8.528-31.195-2.992.339-7.368.023-10.48.046-7.032.053-14.255-.174-21.27.152-7.03.109-16.669.104-23.575.657m105.615 81.914c-6.922 27.452-17.515 59.106-21.672 86.716 3.637-1.806 6.282-3.297 9.741-5.416 1.398-.786 4.252-2.23 5.042-3.476 3.934-6.207 7.204-13.596 10.452-20.154a1326 1326 0 0 0 10.869-22.182c1.655-3.451 3.89-7.833 5.284-11.34a504 504 0 0 0-8.302-16.155c-1.287-2.443-3.792-7.441-5.368-9.39-.43-.092-.425-.148-.828-.087-2.104.743-3.013 1.021-5.218 1.484m25.456 24.808c-2.08 3.299-3.861 8.139-5.631 11.803l-11.923 24.1c-.706 1.422-5.41 10.407-5.508 11.443.413.169.228.176.545.095 5.595-2.925 10.996-6.218 16.73-8.905 1.531-.717 3.401-1.632 4.801-2.539a659 659 0 0 1 4.371-18.278c1.834-7.038 3.99-14.464 5.635-21.496l-.268-.219-.208.035c-2.717 1.256-5.906 2.632-8.544 3.961m39.573-116.75c-4.339 1.932-9.499 4.613-13.478 7.226-1.883 4.959-3.625 13.251-4.922 18.621a1804 1804 0 0 1-6.62 26.392q-1.259 5.055-2.64 10.08c-.859 3.052-3.285 10.38-3.251 13.041.345.466.117.339.625.489 2.768-1.73 3.223-4.982 5.151-7.402 1.949-2.447 4.954-3.153 7.835-3.878.621-5.011 3.802-14.551 5.338-19.788l9.131-32.03c.688-2.459 3.197-10.584 3.274-12.51-.13-.079-.312-.213-.443-.241M110.869 78.606c-.169-3.212-.349-7.425-.155-10.584-1.526-.093-4.176-.35-5.59-.234-1.253.294-2.39.577-3.613.977-7.723 2.529-11.256 10.743-9.404 18.379a18.5 18.5 0 0 0 8.345 11.425c4.47 2.665 10.823 3.387 15.795 1.807-1.648-5.002-4.02-14.418-8.881-16.87-3.811-1.923-6.385 1.216-8.409-.132-.131-1.552.57-3.028 1.539-4.2 2.358-2.85 7.449-1.53 10.373-.568m88.178 160.615c-3.678-6.127-7.492-14.262-10.435-20.795-3.663.982-4.702 2.228-9.191 2.538-4.984.344-9.487.386-14.493-.145-14.891-.858-30.502-3.166-43.678-10.572-2.592-1.457-2.574-1.791-4.589-3.447-2.026-1.664-6.514-8.078-8.178-8.43 1.209 6.277 3.123 8.947 7.942 13.158 12.104 10.573 27.758 13.336 43.265 14.589 1.091.088 2.02.173 3.129.138-1.44 8.851-3.995 17.662-6.219 26.344-.539 2.101-1.092 4.361-1.732 6.424 8.533-4.129 18.661-8.059 26.858-12.273 5.744-2.58 11.469-5.202 17.321-7.529m126.707-7.356c4.564-2.732 8.117-4.164 12.865-6.369.756-3.968 1.914-9.277 3.208-13.136-1.997-3.022-3.579-5.758-3.842-9.465-.055-.776.094-1.446-.702-1.64-8.155 2.777-15.792 5.484-24.196 7.475 2.895 4.663 7.157 12.858 9.768 17.853.965 1.753 1.957 3.518 2.899 5.282m-125.872 39.848c1.305 2.5 4.168 7.668 5.033 10.123 2.129-.334 3.359-.328 5.486-.342.623-3.437 2.221-8.822 3.16-12.322q2.88-10.832 5.936-21.615c.571-1.992 3.308-10.904 3.35-12.381-.124-.041-.371-.14-.483-.137a446 446 0 0 0-21.338 9.03c-3.071 1.359-9.937 4.519-12.879 5.284 3.395 6.049 8.977 16.125 11.735 22.36m-68.711-105.042c-.596 4.771 1.697 10.385 4.654 14.074 5.409 6.749 14.333 11.979 22.923 12.99 1.072.127 2.176.188 3.249.292.041-1.883.183-3.339.378-5.2-11.452-2.578-19.355-5.543-26.54-16.013-1.209-1.761-2.623-5.34-4.664-6.143m74.832 4.24L196.004 143c-1.423-3.906-2.984-8.426-4.755-12.212-.381-.815-.759-.855-1.524-1.216-1.85 2.136-2.987 7.762-3.734 10.627a635 635 0 0 0-3.764 15.024c-2.465 10.218-5.193 20.406-7.603 30.645-.64 2.721-1.009 5.412-1.601 8.046 4.564-.838 11.32-1.384 15.979-1.245l.949-.27c3.528-5.192 13.083-16.753 16.052-21.488m115.178-25.616a1834 1834 0 0 1-10.304 36.691c-.812 2.789-7.038 22.658-6.55 23.695a429 429 0 0 0 13.832-4.145c4.167-1.355 7.99-2.808 12.256-3.875.434-4.525 3.657-15.744 4.938-20.649l8.887-34.318c.462-1.739 3.216-10.944 2.761-11.944a331 331 0 0 1-14.787 8.306c-2.457 1.315-9.086 4.733-11.033 6.239m-97.195-90.29c-.556.16-1.351.247-1.505.714-.879 2.663.899 7.433 1.153 10.147 2.401-.822 5.392-1.767 7.86-.494a4.1 4.1 0 0 1 2.075 2.64c.2.771.173.597-.185 1.176-1.824.983-6.972-2.47-9.263 5.36-.841 2.871-1.35 10.603-1.437 13.722 1.537-.022 2.524.016 4.014-.339 5.218-1.573 8.964-4.028 11.633-8.938a18.42 18.42 0 0 0 1.512-14.14c-2.408-7.853-8.29-10.07-15.857-9.849m-70.377 209.554c-1.935 6.796-3.74 15.948-5.751 22.18 4.225-.692 10.301-1.164 14.58-1.447 12.01-.61 25.086-1.976 37.269-2.835l-15.809-30.592-.391-.095c-5.487 2.555-11.42 4.976-16.985 7.425-3.701 1.629-9.166 4.163-12.913 5.364m88.817-80.257c-1.867 8.92-5.516 19.395-7.866 28.366-1.027 3.919-3.101 12.72-4.419 16.04 4.958 1.615 9.854 3.481 14.856 5.068 1.183-1.705 2.385-3.495 3.63-5.147 4.965-6.857 11.654-15.75 17.016-22.303-1.459-2.339-3.838-6.378-5.536-8.301-4.501-5.099-11.959-9.772-17.681-13.723m14.465-54.954c-.379 3.952-4.415 18.54-5.707 22.947-2.306 7.865-4.783 19.396-7.417 26.825 1.787.87 14.244 9.221 15.557 10.509a25 25 0 0 1 1.521-5.572c.676-2.983 3.516-9.919 4.699-13.226a2111 2111 0 0 1 7.864-21.841c1.706-4.562 3.643-9.234 5.286-13.776-6.1-1.455-12.159-3.349-18.239-4.908-1.16-.297-2.432-.598-3.564-.958"/><path fill="#1447e6" d="M191.96 102.542c10.419 3.415-14.308 19.414-32.091 6.842-3.503-2.327-2.156-8.94 4.523-3.722 4.844 3.784 16.01 3.892 21.215.783 1.792-1.071 4.328-3.182 6.353-3.903"/><path fill="#1447e6" d="M150.59 69.76c.816-.05 1.634.05 2.414.294 1.668.53 2.976 1.7 3.771 3.249a7.2 7.2 0 0 1 .425 5.557c-.703 2.075-1.867 2.969-3.685 3.895-.593.012-1.695-.074-2.277-.216a6.16 6.16 0 0 1-3.762-2.695c-2.341-3.768-.471-8.02 3.114-10.084"/><path fill="#1447e6" d="M174.671 84.325c3.012-.266 6.451-.096 8.891 1.928 1.085.9 2.197 2.674.944 3.906-1.528 1.502-4.436 1.16-6.434 1.129-1.941.039-10.006 1.316-10.744-1.03-1.009-3.21 4.643-5.551 7.343-5.933"/><path fill="#1447e6" d="M192.339 66.45c4.04.501 5.379 2.977 6.24 6.513q-.112.555-.255 1.103c-.668 2.536-1.644 3.617-3.862 4.92-2.339-.115-4.25-.952-5.442-3.08a6.72 6.72 0 0 1-.542-5.242c.689-2.18 1.954-3.217 3.861-4.213"/><path fill="#1447e6" d="M267.005 232.542c2.41-.074 4.472.05 6.596 1.357a9.04 9.04 0 0 1 3.99 5.547c1.567 6.659-4.489 15.094-7.93 20.679-.377.551-.132.362-.763.583-2.335-1.764-8.145-13.017-8.87-15.973-1.576-6.424.515-10.582 6.977-12.193m2.849 13.355a4.083 4.083 0 1 0-2.421-7.8 4.083 4.083 0 0 0 2.421 7.8"/></svg>