<svg xmlns="http://www.w3.org/2000/svg" width="1024" height="1024" viewBox="0 0 1024 1024"><path d="M380.022 376.566c-14.574-31.532-22.958-74.442-14.89-108.562 9.386-38.952 45.958-51.962 75.304-69.899 51.704-31.6 102.194-64.794 165.974-48.725 50.522 12.729 70.668 55.662 94.682 97.558 2.968 6.76 13.41 21.49 11.078 27.152-4.072 9.884-25.832-3.934-30.772-4.978 4.742 23.748 4.094 48.962 8.228 72.802 2.036 11.734 9.792 23.582 14.156 34.636 18.99 42.6-4.106 87.526-35.67 116.886 13.842 6.498 26.266 14.742 31 30.052 6.906 22.336 12.746 49.924 21.654 71.234 10.934 4.096 13.966 9.274 18.294 19.938 27.07 66.702 56.576 139.158 48.444 212.53-8.352 74.678-81.246 49.028-119.392 15.578.294 25.35-1.686 49.828 2.152 75.228-8.176-.09-16.242.052-24.358 0-5.824-54.99.648-107.994 6.634-162.464 1.736-15.792 5.82-33.71 5.662-49.582-2.248-12.192-20.98-58.914-14.518-68.06-15.048-8.304-23.374-15.22-33.258-29.652-2.344 7.196-6.494 12.16-12.776 16.5-38.754 26.772-76.424 12.158-113.182-6.938 15.924 48.292 17.982 79.94 10.284 129.888 28.354-12.566 50.676-24.552 83.12-25.474 36.54-1.04 40.562 24.19 28.732 52.814-21.942 53.098-93.91 107.696-144.716 127.466-58.592 22.8-108.642 35.422-136.208-31.416l-.336.648c-4.304 8.362-16.08 45.104-22.574 47.76l-1.286-.382c-3.526-6.83 3.692-46.05 5.43-53.62-25.968-11.932-57.26-30.392-68.356-57.898-6.708-16.632-.406-31.71 3.954-47.766 5.814-21.41 1.506-43.81-2.578-65.072-20.116-112.598 66.25-171.344 163.096-191.752-.396-3.918-.146-7.854 0-11.79-18.194 3.202-4.356-9.366 0-20.244-32.83-9.156-60.966-43.046-48.206-77.88-2.468-3.236-6.782-11.116-8.844-14.904-26.248-48.224-41.134-112.852-3.75-159.782 19.702-23.522 49.406-39.419 79.808-43.256 19.044-2.403 7.642 7.182-3.04 11.737-90.324 38.523-91.17 114.917-53.416 193.029l.27.548c5.576-2.31 8.21-3.052 14.17-3.888m190.86-68.408c-12.688 14.796-90.324 33.374-67.91 18.712l2.458-2.19c3.022-5.916 12.394-14.37 13.976-19.126-34.068 22.056-53.878 32.088-94.9 37.648 1.862 15.674-2.34 32.548 2.068 48.322.606 2.168 1.186 5.798 1.28 8.02 34.372 55.534-17.612 5.834-36.64 1.128-32.284-7.984-12.476 43.07 20.06 52.228 9.004 2.534 16.42-2.774 23.836-7.096 40.61 57.132 90.72 73.52 157.592 66.546 12.124-39.32 26.25-37.22 59.402-28.414 17.93-16.554 35.456-47.936 35.946-72.128.55-25.94-20.42-49.088-20.472-70.172-.054-21.82-1.544-63.34-6.578-85.038-10.556-4.84-22.322-12.534-33.824-17.138-7.446 24.382-35.242 56.062-56.294 68.698m14.52 475.12c29.548-56.66 8.69-53.366-40.03-37.412-29.878 12.264-111.416 56.162-126.862 86.086-2.372 4.428-2.904 12.552-8.178 14.524-6.24 2.33-11.426-1.87-12.692-7.974-4.126-19.908 18.56-35.652 30.214-47.986l-.042-.67c-.282-5.296.568-12.322.992-17.812 4.622-60.146-12.964-131.352-60.326-172.088-65.7 34.424-44.168 173.92-30.892 230.566 4.634 19.772 14.794 60.224 37.942 64.944 60.814 12.4 143.142-47.95 186.296-86.926 8.642-7.806 15.612-18.036 23.578-25.252m-316.846 29.5c8.778-28.97 21.15-56.998 17.886-88.252-3.022-28.918-10.12-51.4-5.488-81.1 8.892-57.01 62.656-86.102 109.646-109.198 4.862-2.39 13.19-4.554 17.068-7.814-40.704 4.788-97.312 31.938-122.728 64.692-49.568 63.878-4.118 114.32-20.378 176.358-5.224 19.934-10.216 27.082 3.994 45.314m205.258-268.726c11.074 12.076 20.522 22.936 35.248 31.208 16.532 9.288 51.972 20.624 69.426 7.702-6.56-21.254-2.042-27.026 4.242-47.02-29.916 4.624-61.12.092-89.054-11.556-6.152-2.566-13.006-7.576-19.132-9.884.49 10.618-.906 20.134-.73 29.55m114.282 69.47c5.236-3.196 7.22-4.454 11.454-8.782-6.096-2.48-9.494-3.608-14.148-8.504-41.736 22.786-97.194-5.348-122.274-41.028-1.652-2.35-7.2-11.834-10.108-11.156l-12.43 3.138c9.318 12.01 21.018 22.562 27.99 36.546 4.324 8.672 10.702 12.466 18.638 17.182 30.768 19.76 66.61 30.478 100.878 12.604m82.168 212.528c16.254 13.938 74.66 54.56 93.724 28.136 23.108-36.79-9.168-145.472-21.106-183.622-1.382-4.416-16.334-49.422-16.89-50.16-24.07 17.996-33.132 24.364-63.15 31.22 1.258 6.232 1.686 7.53 4.658 13.124 11.908-.882 25.426-3.822 36.576-8.366 4.982-1.734 13.76-11.546 18.89-6.626 18.4 17.656-45.584 29.234-52.702 30.552 12.32 33.798 22.114 77.87 31.924 113.372 2.81 10.172-2.818 12.44-12 10.602-6.936-6.226-11.09-23.02-14.152-32.54l-.442-.588c-.57 1.616-.894 9.74-1.092 12l-2.562 27.112c-.448 4.644-.886 11.346-1.676 15.784m-294.97-247.288c39.032 32.688 57.312 65.418 71.812 113.468 1.06-4.442-1.68-14.5-2.776-19.208-8.968-38.526-28.972-72.792-57.954-99.682-5.058 1.836-6.478 2.458-11.082 5.422m239.438-70.666c9.138 1.664 25.89 6.952 32.984 12.746 6.82 5.572 3.146 14.528-8.332 12.414-14.722-2.712-22.904-12.428-34.268.124 7.004-.234 27.646 3.848 28.188 13.164.868 14.92-23.076-1.786-33.92 6.35-8.338 7.268-5.58 23.326 2.114 31.066-.034-4.84-.25-13.162 3.344-16.666 2.73-2.658 10.326-4.098 13.144-.454 2.046 2.648 4.624 20.84 6.996 27.882 16.424 24.58 21.428 20.87 37.86 37.172 15.644-4.132 35.026-15.432 47.586-25.886-8.228-24.308-20.384-87.89-43.716-97.876-9.1-3.894-32.398-11.994-41.73-8.972-6.564.446-7.75 3.118-10.25 8.936"/><path d="M533.304 353.42c15.71-1.404 22.978 27.908 7.652 35.508-14.782 1.032-23.632-27.402-7.652-35.508"/><path d="M635.884 329.118c15.274 2.958 20.202 30.62 3.692 35.702-16.424-5.568-20.892-32.516-3.692-35.702"/><path d="M610.426 421.192c4.248-.744 14.874-.086 15.824 5.198-1.928 8.64-27.696 11.76-35.35 13.008-3.488.952-11.13 3.348-14.276 3.02l-.616-.766c.608-12.232 24.824-19.488 34.418-20.46"/><path d="M627.176 282.224c27.62.344 39.49 20.228 21.294 14.878-7.762-1.564-29.918-.754-30.868-6.664-1.21-7.524 4.308-7.776 9.574-8.214"/><path fill="#1447e6" d="M380.022 376.566c-14.574-31.532-22.958-74.442-14.89-108.562 9.386-38.952 45.958-51.962 75.304-69.899 51.704-31.6 102.194-64.794 165.974-48.725 50.522 12.729 70.668 55.662 94.682 97.558 2.968 6.76 13.41 21.49 11.078 27.152-4.072 9.884-25.832-3.934-30.772-4.978-2.798-3.748-16.05-10.46-20.398-12.514-10.556-4.84-22.322-12.534-33.824-17.138-7.446 24.382-35.242 56.062-56.294 68.698-12.688 14.796-90.324 33.374-67.91 18.712l2.458-2.19c3.022-5.916 12.394-14.37 13.976-19.126-34.068 22.056-53.878 32.088-94.9 37.648 1.862 15.674-2.34 32.548 2.068 48.322.606 2.168 1.186 5.798 1.28 8.02-15.084-13.084-27.108-23.2-47.832-22.978"/><path d="M573.452 191.982c2.132 34.702-12.492 70.232-35.61 95.806-5.572 6.162-12.484 11.31-17.932 17.214l-.504.552c-34.068 22.056-53.878 32.088-94.9 37.648-5.278.816-24.4 3.21-28.274 1.084l-.262-1.2c1.286-4.564 6.594-9.768 10.002-13.084 27.256-26.516 40.98-47.704 61.568-77.566-4.26 16.932-5.924 30.918-14.758 46.65-3.636 6.472-9.264 14.346-11.884 20.776l-.308.774c60.772-18.798 113.46-67.55 132.862-128.654"/><path d="M633.946 200.278c-.428 10.518-1.056 16.374-2.73 26.742 28.55 1.54 43.282 6.874 66.404 23.672 2.598 2.37 8.368 6.94 8.094 10.614l-1.058.702c-13.638.864-73.874-33.466-77.48-22.548-7.446 24.382-35.242 56.062-56.294 68.698-12.688 14.796-90.324 33.374-67.91 18.712l2.458-2.19.64-.258c54.774-22.442 104.8-68.998 127.876-124.144"/><path fill="#1447e6" d="M502.972 326.87c12.908 2.874 56.266-13.262 67.91-18.712-12.688 14.796-90.324 33.374-67.91 18.712"/><path fill="#1447e6" d="M423.958 469.266c7.434 7.05 22.572 22.298 29.062 29.894.016 2.856.098 6.11 0 8.936-19.464-7.208-31.81-3.766-49.99-5.1-.396-3.918-.146-7.854 0-11.79 15.668-3.266 14.986-10.61 20.928-21.94"/><path d="M392.886 856.092c8.244-.672 21.52 7.708 13.076 14.986-7.262.118-21.014-7.486-13.076-14.986"/><path d="M701.092 811.046c8.896.956 10.73 13.336 2.382 19.298-6.26-1.012-6.882-6.158-8.228-11.524 1.252-4.574 1.546-5.644 5.846-7.774"/><path fill="#1447e6" d="M407.668 526.414c7.364-1.776 22.006-2.428 29.82-1.904-27.42 9.12-72.936 28.788-95.016 48.83 2.088 3.602 4.092 6.26 6.57 9.622-61.274 49.912-54.912 151.548-40.886 221.61 2.622 13.38 7.564 28.644 9.764 40.734-22.768-11.214-30.5-17.104-49.364-32.528 8.778-28.97 21.15-56.998 17.886-88.252-3.022-28.918-10.12-51.4-5.488-81.1 8.892-57.01 62.656-86.102 109.646-109.198 4.862-2.39 13.19-4.554 17.068-7.814"/><path fill="#1447e6" d="M420.778 554.632c40.336 42.952 55.472 93.54 53.658 152.87-.424 13.882-2.826 43.23-6.896 55.854-5.144 3.65-10.442 7.208-15.11 11.438 1.186-33.736-1.716-50.84-5.324-82.564 1.06-4.442-1.68-14.5-2.776-19.208-8.968-38.526-28.972-72.792-57.954-99.682 7.206-5.574 25.646-14.818 34.402-18.708"/><path d="M558.614 102.498c77.028-6.45 164.146 51.91 167.49 133.378 1.252 30.472-22.706-27.06-24.4-30.674-9.708-20.698-24.21-34.81-40.704-49.922-14.064-7.931-26.384-17.576-42.026-22.925-56.004-19.152-105.616-2.74-151.506 30.112-3.128 2.238-9.84 7.352-12.806 8.786-8.64-1.835-.078-12.028 2.646-15.402 26.532-32.876 60.332-48.493 101.306-53.353"/></svg>